<?xml version="1.0" encoding="UTF-8"?>
<svg id="Layer_1" xmlns="http://www.w3.org/2000/svg" version="1.1" viewBox="0 0 392.17 106.21">
  <!-- Generator: Adobe Illustrator 29.8.1, SVG Export Plug-In . SVG Version: 2.1.1 Build 2)  -->
  <defs>
    <style>
      .st0 {
        fill: #fff;
      }

      .st1 {
        fill: #d17728;
      }

      .st2 {
        opacity: .89;
      }

      .st3 {
        fill: #eaccb2;
      }
    </style>
  </defs>
  <g class="st2">
    <g>
      <g>
        <g>
          <path class="st0" d="M195.35,48.16c-.84,0-1.34-1.15-1.78-2.16-.2-.45-.38-.88-.59-1.21-.35-.54-.8-1.07-1.28-1.53l14.93-.12c-.27.43-.47.92-.59,1.5-.28-.04-.59-.06-.91-.06-1.21,0-2.47.29-3.58.54l-.3.07c-.92.21-1.88.59-2.76,1.12-.4.23-.77.51-1.13.78-.44.33-.86.64-1.33.89-.25.13-.48.2-.69.2h0Z"/>
          <path d="M206.2,43.39c-.15.3-.26.62-.35.97-.23-.02-.47-.04-.71-.04-1.24,0-2.51.29-3.63.54l-.3.07c-.95.21-1.93.61-2.84,1.15-.41.24-.79.52-1.15.8-.43.32-.85.63-1.29.86-.21.11-.41.17-.58.17-.68,0-1.14-1.07-1.55-2.01-.2-.46-.39-.9-.61-1.25-.25-.39-.56-.78-.9-1.15l13.91-.11M207.13,42.88c-5.17.04-10.56.09-16.09.13.71.58,1.32,1.3,1.72,1.91.7,1.08,1.17,3.49,2.58,3.49.24,0,.51-.07.81-.23.88-.46,1.61-1.17,2.47-1.67.83-.49,1.76-.88,2.69-1.09,1.15-.26,2.52-.6,3.82-.6.38,0,.75.03,1.11.1.13-.75.39-1.46.89-2.04h0Z"/>
        </g>
        <g>
          <path class="st0" d="M29.44,68.28c-.67-1.63-1.07-3.24-1.22-4.9-.19-2.13-.14-4.25-.05-6.03.02-.25.03-.5.04-.75l.1-1.79c.23-4.46.47-9.07,2.23-13.13.53,1.62.77,3.32.71,5.06h-.02c-.22,0-.44.01-.65.02-.23,0-.4.19-.42.43-.01.23.14.43.37.46,3.44.59,7.04.59,10.53.6.98,0,1.96,0,2.93.02,1.37.02,2.74.04,4.11.07,2.95.05,5.9.1,8.85.12-.07,1.72-.13,3.47-.17,5.21-.02,0-.05-.02-.07-.03-.28-.09-.6-.13-.98-.13-.29,0-.59.02-.88.05-.17.01-.33.03-.49.04-.43.03-2.07.14-2.07.14-1.58.11-3.12.21-4.64.22h-.56c-2.82.03-5.73.06-8.6.29-.25.02-.43.21-.43.45,0,.26.2.46.46.48,2.2.13,4.34.15,6.14.15.79,0,3.33-.01,3.33-.01,1.47,0,2.95.07,4.2.14.79.05,1.53.09,2.26.12.16,0,.32.01.47.02.22.01.44.03.65.03,0,0,.12,0,.12,0,.42,0,.75-.04,1.04-.14,0,1.01,0,2.02.02,3.03v.1c-.29-.09-.63-.13-1.03-.13-.27,0-.55.02-.83.04-.21.02-.43.03-.63.03-1.06.03-2.11.06-3.17.1-1.27.04-2.54.06-3.81.09-.84.02-1.67.03-2.51.05-1.71.04-3.41.05-5.12.07-2.47.02-5.03.04-7.54.15-.28.01-.49.22-.49.5,0,.26.19.54.52.55,2.57.11,5.17.13,7.69.14,1.67,0,3.33.02,5,.06l2.32.05c1.28.02,2.55.05,3.83.08,1.06.04,2.12.07,3.18.1.21,0,.42.02.63.03.28.02.55.04.83.04.3,0,.72-.02,1.16-.15.02.53.07,2.01.07,2.18-5.09.46-9.27.68-13.16.68-1.82,0-3.69-.09-5.49-.17-1.83-.08-3.72-.17-5.58-.17-.83,0-1.65.02-2.47.06-.22,0-.4.18-.42.42-.02.24.14.43.37.47.13.02.27.04.4.06-.04.1-.07.23-.08.37-.1,1.36-.43,2.69-.98,3.96Z"/>
          <path d="M30.5,42.44c.36,1.31.53,2.67.5,4.07-.15,0-.29,0-.43.01-.36.02-.64.3-.66.66-.02.37.23.67.57.72,3.46.59,7.07.6,10.57.61.98,0,1.96,0,2.93.02,1.38.02,2.76.04,4.14.07,2.8.05,5.7.1,8.56.12-.06,1.54-.11,3.09-.15,4.63-.24-.05-.51-.08-.81-.08s-.61.03-.91.05c-.16.01-.32.03-.48.04-.44.03-.88.06-1.32.09l-.75.05c-1.57.11-3.11.21-4.62.22h-.56c-2.82.03-5.74.06-8.62.29-.39.03-.66.32-.66.7,0,.39.31.71.69.73,2.21.13,4.35.15,6.16.15.79,0,1.57,0,2.36,0h.68s.28,0,.28,0c1.46,0,2.94.07,4.22.14.74.04,1.49.09,2.24.12.15,0,.3.01.46.02.22.01.44.03.66.03h.14c.29,0,.54-.02.78-.07,0,.83,0,1.68.02,2.5-.23-.04-.49-.06-.78-.06s-.56.02-.84.04c-.21.01-.42.03-.62.03-1.05.03-2.11.06-3.17.1-1.27.04-2.54.06-3.81.09-.84.02-1.68.03-2.51.05-1.7.04-3.43.05-5.11.07-2.47.02-5.03.04-7.55.15-.42.02-.73.33-.73.75,0,.43.33.78.76.81,2.57.11,5.17.13,7.68.14,1.64.01,3.34.02,5.01.06.78.02,1.55.03,2.33.05,1.28.02,2.55.05,3.82.08,1.06.04,2.12.07,3.18.1.2,0,.41.02.62.03.28.02.56.04.84.04.25,0,.57-.01.92-.08.01.42.03.84.05,1.25v.14c0,.08,0,.16.01.24-4.97.45-9.08.66-12.9.67-1.82,0-3.68-.09-5.49-.17-1.83-.08-3.73-.17-5.59-.17-.89,0-1.7.02-2.47.06-.36,0-.65.29-.67.65-.02.36.23.68.57.73.05,0,.09.02.14.02,0,.05-.01.1-.02.15-.08,1.13-.33,2.24-.73,3.31-.53-1.41-.85-2.81-.98-4.24-.19-2.12-.13-4.22-.05-5.98.02-.26.03-.51.04-.77l.02-.37c.03-.47.05-.95.08-1.42.22-4.21.44-8.54,1.95-12.39M30.57,41.02c-2.23,4.66-2.31,10.15-2.59,15.2-.02.37-.04.75-.06,1.12-.09,2.02-.13,4.06.05,6.06.18,1.94.69,3.75,1.46,5.49.7-1.43,1.13-2.96,1.24-4.56.02-.27.12-.46.27-.58-.27-.04-.53-.07-.8-.12-.23-.03-.2-.38.03-.39.82-.04,1.64-.06,2.46-.06,3.69,0,7.4.34,11.08.34,4.44,0,8.94-.3,13.36-.71.01,0,.02,0,.03,0,0,0,.02,0,.03,0-.01-.28-.02-.57-.03-.85-.03-.64-.05-1.28-.07-1.92-.44.21-.91.26-1.39.26s-.97-.05-1.45-.07c-1.06-.02-2.12-.06-3.17-.1-2.05-.06-4.1-.08-6.16-.13-4.23-.09-8.45-.02-12.68-.2-.34-.02-.4-.54-.03-.55,4.22-.19,8.43-.11,12.65-.22,2.11-.05,4.22-.07,6.32-.14,1.05-.04,2.11-.07,3.16-.1.47-.01.97-.07,1.45-.07.45,0,.89.05,1.29.25-.02-1.19-.04-2.4-.02-3.59,0-.12,0-.23,0-.35-.08.07-.16.15-.29.19-.32.11-.65.14-1,.14,0,0-.02,0-.02,0-.04,0-.08,0-.12,0-.37,0-.74-.04-1.11-.05-.75-.03-1.51-.08-2.26-.12-1.41-.08-2.81-.14-4.22-.14-.09,0-.19,0-.28,0-1.02,0-2.03.01-3.04.01-2.04,0-4.08-.03-6.13-.15-.27-.02-.32-.41-.03-.43,3.05-.24,6.09-.25,9.15-.29,1.55-.02,3.1-.12,4.65-.22.69-.05,1.38-.1,2.06-.14.43-.02.9-.08,1.36-.08.31,0,.62.03.91.12.16.05.29.15.38.27t0,.01h0c.04-2,.1-3.97.19-5.95-4.41-.02-8.8-.12-13.22-.19-4.44-.07-9.04.13-13.42-.62-.23-.03-.2-.38.02-.39.34-.02.69-.02,1.03-.03-.07-.05-.12-.12-.12-.23.07-1.97-.24-3.91-.93-5.74h0Z"/>
        </g>
        <g>
          <path class="st0" d="M61.67,86.1c-.4,0-1.15-.69-1.7-5.33l-.04-.34c-.33-2.22-.55-4.5-.76-6.7l-.08-.82c-.16-1.67-.3-3.48-.44-5.7-.33-5.94-.36-12.21-.08-19.15.23-.34.25-.83.05-1.2.07-1.54.14-3.06.24-4.59.15-2.61.38-5.44.67-8.67l.04-.39c.12-1.27.23-2.54.39-3.79.12-.92.56-2.34,1.34-2.65.74.57,1.13,1.35,1.32,2.54.21,1.34.32,2.72.42,4.06.13,1.64.21,3.05.26,4.39.03.76.05,1.44,0,2.13-.02.2-.04.4-.06.6-.04.3-.07.6-.08.89-1.59.58-2.35,2.7-2.52,4.38-.28,2.78-.45,5.81-.53,9.28-.07,3.48-.1,6.41-.02,9.37.08,2.44.16,5.13,2.35,6.71.35.25.71.46,1.11.63,0,.44-.01.89-.03,1.33-.04,1.87-.14,3.74-.26,5.65-.1,1.56-.22,2.83-.38,4.01-.02.17-.04.38-.06.61-.08.9-.2,2.14-.78,2.57-.13.09-.24.14-.35.14Z"/>
          <path d="M61.26,27.09c.6.48.94,1.18,1.1,2.29.21,1.33.31,2.71.42,4.05v.06c.13,1.57.21,2.98.26,4.31.03.75.05,1.42,0,2.1-.01.19-.04.39-.06.59-.03.25-.06.5-.07.75-1.59.7-2.35,2.83-2.52,4.53-.28,2.78-.45,5.82-.53,9.3-.07,3.49-.1,6.42-.02,9.38v.07c.08,2.43.16,5.18,2.45,6.83.32.23.65.43,1,.59,0,.39-.01.77-.03,1.17-.04,1.86-.14,3.73-.26,5.64-.1,1.55-.22,2.82-.38,3.99-.02.18-.04.39-.07.62-.07.81-.18,2.02-.68,2.39-.11.08-.17.09-.2.09-.09,0-.86-.14-1.45-5.11-.02-.15-.03-.26-.04-.35-.33-2.22-.55-4.5-.76-6.71l-.08-.79c-.16-1.67-.3-3.48-.44-5.69-.33-5.92-.36-12.15-.08-19.06.23-.39.25-.91.05-1.33.06-1.44.14-2.99.24-4.52.15-2.59.37-5.42.67-8.66l.04-.38c.12-1.25.23-2.53.39-3.79.1-.83.49-2.02,1.06-2.38M61.33,26.52c-1.02.27-1.51,1.96-1.62,2.89-.18,1.39-.3,2.79-.43,4.19-.27,2.89-.5,5.78-.67,8.68-.1,1.55-.17,3.1-.24,4.66.2.31.19.77-.04,1.05-.26,6.41-.28,12.86.08,19.25.12,1.91.25,3.81.44,5.71.24,2.51.47,5.03.84,7.53.11.79.57,5.88,1.99,5.88.15,0,.32-.06.49-.19.84-.62.82-2.45.95-3.35.19-1.34.3-2.67.39-4.03.11-1.88.22-3.77.26-5.66.02-.5.03-1.01.03-1.51-.42-.17-.83-.39-1.21-.67-2.11-1.52-2.17-4.13-2.25-6.51-.09-3.12-.05-6.24.02-9.36.07-3.09.22-6.19.53-9.26.15-1.57.89-3.77,2.51-4.22,0-.55.11-1.12.15-1.66.06-.72.04-1.44,0-2.16-.05-1.45-.14-2.89-.26-4.33-.11-1.38-.21-2.78-.43-4.15-.17-1.12-.54-2.12-1.52-2.77h0Z"/>
        </g>
        <g>
          <path class="st0" d="M66.4,70.06c-.47,0-.88-.03-1.27-.1-.15-.1-.35-.16-.55-.16-.04,0-.07,0-.11,0-.65-.2-1.2-.51-1.68-.95-1.07-.99-1.1-2.47-1.14-3.77-.04-1.59-.04-3.18-.04-4.77,0-2.75.1-5.78.3-9.53l.03-.62c.07-1.41.15-2.86.31-4.27.17-1.55.62-2.48,1.4-2.92.1,0,.2,0,.3,0,.03.02.14.04.25.04.14,0,.27-.03.39-.08l.55-.03c.37-.03,2.04-.15,2.04-.15.67-.05,1.34-.1,2.01-.14.13,0,.27-.02.42-.02.29,0,.5.03.66.09.09.04.11.06.11.06h0s0,.02,0,.11c-.01.2-.08.43-.15.65-.03.1-.12.44-.12.44-.16.62-.32,1.24-.45,1.87-.08.37-.14.75-.21,1.12-.05.3-.11.6-.16.9l-.07.34c-.11.52-.23,1.11-.2,1.64.01.19.16.33.35.33.13,0,.25-.07.31-.18.16-.26.24-.55.33-.83.03-.1.06-.2.09-.29.12-.35.23-.71.34-1.07.08-.29.17-.57.26-.85.15-.48.29-.95.42-1.43.1-.38.19-.77.28-1.16v-.03c.08,0,.34,0,.74-.01,6.61-.09,56.53-.51,97.25-.85l17.77-.15s.03.06.05.08c.43.56.98.89,1.52,1.2.31.18.64.37.93.6.78.62,1.25,1.39,1.66,2.12,1.15,2.1,2.44,3.11,3.94,3.11.11,0,.22,0,.33-.02,1.33-.13,2.46-.98,3.55-1.81.53-.4,1.03-.78,1.54-1.06,1.06-.6,2.06-.96,3.05-1.11.51-.08,1.04-.08,1.56-.09.19,0,.39,0,.58-.01-.07,2.13,0,4.29.05,6.39v.35s-.76.02-.76.02c-.42.01-.84.03-1.26.05-.75.04-1.49.1-2.24.16-.45.04-.9.07-1.35.1-2.76.19-5.03.32-7.16.39-.31.01-.54.25-.53.56,0,.28.21.58.58.58h.27c2.06,0,4.26.04,6.92.13.45.01.9.03,1.34.05.76.03,1.51.07,2.27.08.33,0,1.8,0,1.8,0,0,0,.12,0,.17,0l.1,5.75c-.11.01-.23.05-.34.09-.74.33-1.54.49-2.47.49-1,0-2.04-.19-3.05-.37-1.04-.19-2.11-.38-3.17-.38-.53,0-1.01.05-1.47.14-1.68.34-2.94,1.3-3.86,2.92-.13.23-.26.49-.4.77-.45.9-1.02,2-1.8,2.56l-23.1.19c-23.11.19-46.27.39-63.75.54-8.74.08-16.06.14-21.24.19l-8.13.09h-.34c-.08.01-.15.03-.22.05-.17-.74-.38-1.48-.58-2.2-.14-.49-.27-.97-.4-1.46-.15-.58-.31-1.17-.46-1.75-.31-1.17-.62-2.34-.89-3.51-.04-.16-.18-.27-.34-.27-.11,0-.21.04-.28.12l-.07.08v.19c.13,1.22.23,2.44.33,3.66.05.59.1,1.18.15,1.78.04.47.08.94.11,1.41.08,1.11.17,2.26.36,3.39-.54.04-1.07.11-1.61.18-.89.11-1.81.23-2.69.23Z"/>
          <path d="M69.61,42.86c.22,0,.39.02.51.06-.02.16-.08.34-.13.53-.03.11-.06.21-.09.31l-.03.12c-.16.62-.32,1.26-.45,1.9-.08.37-.14.75-.21,1.13-.05.3-.1.6-.16.9l-.07.34c-.11.53-.24,1.14-.2,1.7.02.32.28.56.6.56.21,0,.42-.11.53-.3.17-.29.27-.61.36-.89.03-.1.06-.19.09-.28.12-.36.23-.72.34-1.08.08-.28.17-.56.26-.84.15-.48.3-.96.43-1.45.09-.33.17-.67.24-1.01.12,0,.3,0,.53,0,6.61-.09,56.53-.51,97.25-.85l17.64-.15c.46.59,1.03.92,1.58,1.24.32.18.62.36.9.58.74.6,1.2,1.33,1.59,2.04,1.19,2.18,2.56,3.24,4.16,3.24.12,0,.23,0,.36-.02,1.39-.14,2.55-1.01,3.67-1.86.52-.39,1.02-.77,1.51-1.04,1.03-.58,2-.94,2.97-1.08.49-.08.99-.08,1.52-.09.11,0,.22,0,.32,0-.05,2.05,0,4.13.06,6.15v.09s-.49.02-.49.02c-.43.01-.86.03-1.3.05-.75.04-1.49.1-2.24.16-.45.04-.9.07-1.35.1-2.75.19-5.02.32-7.15.39-.45.02-.78.37-.77.82,0,.46.37.83.83.83h.28c2.06,0,4.26.04,6.91.13.45.01.89.03,1.34.05.75.03,1.52.07,2.28.08.33,0,.66,0,.99,0h.39s.36,0,.36,0c.03,1.76.06,3.53.09,5.29-.06.02-.13.04-.19.07-.7.32-1.48.47-2.36.47-.98,0-1.96-.18-3-.36-1.05-.19-2.13-.38-3.21-.38h0c-.54,0-1.04.05-1.52.15-1.75.36-3.07,1.36-4.03,3.05-.13.23-.27.5-.41.78-.43.85-.96,1.89-1.65,2.42l-23.02.19c-23.11.19-46.27.39-63.75.54-8.74.08-16.06.14-21.24.19-2.59.02-4.65.05-6.08.06-.72,0-1.28.01-1.67.02h-.5c-.11.01-.16.01-.22.01,0,0,0,0-.01,0-.16-.67-.35-1.33-.53-1.98-.14-.48-.27-.97-.4-1.45-.15-.58-.3-1.16-.45-1.74-.31-1.15-.62-2.35-.9-3.53-.06-.27-.3-.46-.59-.46-.18,0-.35.08-.47.21-.11.13-.17.3-.15.47.14,1.21.24,2.44.34,3.64.05.6.1,1.2.16,1.79.04.46.08.93.11,1.4.08,1.03.15,2.09.32,3.14-.44.04-.89.1-1.35.16-.88.11-1.79.23-2.65.23-.43,0-.82-.03-1.18-.09-.18-.11-.41-.17-.64-.17-.03,0-.05,0-.08,0-.59-.19-1.1-.48-1.53-.88-.92-.85-1.02-2.08-1.06-3.6-.04-1.56-.04-3.14-.04-4.76,0-2.78.1-5.72.3-9.51l.03-.61c.07-1.4.15-2.86.31-4.27.16-1.42.54-2.28,1.22-2.7.05,0,.1,0,.15,0,.11.03.22.05.33.05.14,0,.27-.02.4-.07.18-.01.37-.03.59-.05.34-.03.68-.05,1.02-.08.33-.02.66-.05.99-.07.67-.05,1.33-.1,2-.14.12,0,.26-.01.4-.01M69.61,42.36c-.15,0-.3,0-.43.02-.67.04-1.34.09-2.01.14-.67.05-1.34.09-2.01.15-.23.02-.44.04-.66.05-.09.04-.18.06-.28.06-.08,0-.17-.02-.25-.04-.12,0-.23,0-.35-.01-1.09.58-1.46,1.88-1.6,3.15-.18,1.63-.25,3.27-.34,4.91-.17,3.18-.3,6.36-.3,9.54,0,1.59,0,3.18.04,4.77.04,1.43.1,2.91,1.22,3.95.55.51,1.17.83,1.82,1.03.04,0,.09,0,.13,0,.17,0,.33.05.45.14.44.08.9.11,1.37.11,1.49,0,3.04-.32,4.42-.42.01,0,.02,0,.03,0,.05,0,.1,0,.15.02-.32-1.67-.37-3.38-.53-5.07-.17-1.81-.29-3.63-.5-5.44,0-.07.06-.12.12-.12.04,0,.09.02.1.07.41,1.77.9,3.51,1.35,5.27.34,1.32.76,2.63,1.05,3.97.12-.09.25-.16.41-.17.06,0,.12,0,.24,0,.11,0,.27,0,.47,0,.39,0,.96-.01,1.67-.02,1.43-.02,3.49-.04,6.08-.06,5.18-.05,12.5-.12,21.24-.19,17.48-.15,40.64-.35,63.75-.54,7.8-.06,15.6-.13,23.17-.19,1.11-.74,1.77-2.44,2.34-3.45.84-1.48,2.02-2.46,3.7-2.8.47-.1.95-.14,1.42-.14,2.07,0,4.17.75,6.21.75.87,0,1.73-.13,2.57-.51.13-.06.25-.08.37-.08.04,0,.08,0,.12,0-.03-1.95-.07-3.89-.1-5.84,0-.14,0-.28,0-.42-.12.01-.26.02-.41.02h0s-.03,0-.05,0c-.26,0-.51,0-.77,0-.33,0-.65,0-.98,0-1.2-.02-2.41-.09-3.61-.13-2.31-.08-4.61-.13-6.92-.13-.09,0-.19,0-.28,0h0c-.41,0-.46-.63-.04-.64,2.39-.08,4.78-.22,7.17-.39,1.19-.08,2.39-.2,3.58-.26.6-.03,1.2-.05,1.79-.07.08,0,.16,0,.24,0,.08,0,.16,0,.24,0-.06-2.42-.14-4.85-.06-7.26-.81.04-1.63,0-2.44.12-1.12.17-2.15.58-3.14,1.14-1.58.89-3.11,2.65-4.98,2.84-.1.01-.21.02-.31.02-1.77,0-2.94-1.56-3.72-2.98-.46-.84-.96-1.58-1.72-2.19-.81-.65-1.76-.91-2.41-1.76-.04-.06-.07-.12-.09-.18-5.88.05-11.89.1-17.94.15-44.63.37-90.86.76-97.25.85-.41,0-.67.01-.71.01h0s-.02,0-.02,0c-.07,0-.13-.02-.19-.03-.11.47-.21.94-.33,1.4-.2.77-.45,1.52-.68,2.28-.1.36-.21.71-.33,1.06-.12.35-.21.75-.4,1.08-.02.04-.06.05-.1.05-.05,0-.1-.03-.1-.1-.04-.61.15-1.31.27-1.91.13-.67.23-1.35.37-2.02.14-.67.31-1.33.48-2,.08-.31.22-.67.24-.99.02-.24-.05-.32-.27-.41-.22-.09-.49-.11-.75-.11h0Z"/>
        </g>
        <g>
          <path class="st0" d="M192.01,66.95c.35-.51.63-1.09.89-1.65.62-1.33,1.21-2.58,2.76-2.85.26-.04.54-.07.82-.07,1.24,0,2.47.44,3.66.86.28.1.56.2.84.29,1.03.34,2,.52,2.9.52.81,0,1.57-.15,2.25-.43l.02,1.51c0,.61.01,1.29.21,1.89l-14.49.12c.05-.06.1-.13.14-.19Z"/>
          <path d="M196.48,62.63c1.19,0,2.4.43,3.57.85.28.1.57.2.85.3,1.05.35,2.05.53,2.98.53.71,0,1.39-.11,2.01-.32v.88s.02.27.02.27c0,.52,0,1.09.13,1.64l-13.68.11c.3-.47.54-.99.78-1.49.62-1.32,1.16-2.46,2.58-2.71.25-.04.51-.06.78-.06M196.48,62.13c-.29,0-.57.02-.86.07-2.37.41-2.65,2.93-3.82,4.6-.15.21-.31.41-.48.59,5.28-.04,10.44-.09,15.41-.13-.35-.72-.31-1.63-.32-2.41,0-.54-.02-1.08-.03-1.62-.79.41-1.63.57-2.49.57-.95,0-1.91-.2-2.82-.51-1.47-.49-3-1.17-4.58-1.17h0Z"/>
        </g>
        <g>
          <path class="st0" d="M211.52,66.92c-.66,0-1.29-.16-1.84-.46-.09-.05-.18-.07-.28-.07h-.05c-.13-.06-.28-.09-.42-.09-.18,0-.34.05-.5.14-.12,0-.31-.24-.3-1.87v-.19s-.13-5.19-.13-5.19c-.04-1.63-.08-3.26-.13-4.89l-.19-6.53-.02-.58c-.04-.88-.08-1.79.17-2.6.22-.7.63-.96,1.15-1.29.1-.06.2-.12.29-.19l3.68-.03c0,.31.03.63.06.93.02.17.03.33.04.5l.12,1.86c.09,1.41.17,2.82.37,4.21.07.51.17,1,.28,1.5.17.84.34,1.64.36,2.48.04,1.22.11,2.56.23,4.2.02.24.21.42.45.42.13,0,.25-.05.34-.14.08-.09.13-.21.12-.34-.04-1.2-.1-2.62-.21-4.05-.07-.89,0-1.75.09-2.65.05-.51.09-1.02.11-1.54.05-1.4-.01-2.82-.07-4.07l-.09-1.96c-.01-.23-.01-.4-.01-.58,0-.26,0-.53-.02-.8l1.88-.02.02.02c.62.48,1.15.89,1.47,1.7.41,1.05.42,2.22.42,3.35v1.82c.02,1.95.03,3.89.05,5.84.03,2.55-.04,5.04-.2,7.39-.12,1.77-.95,3.56-2.52,3.56h0c-.28,0-.57-.05-.88-.16.1-.18.17-.39.17-.62,0-.11-.04-.22-.12-.3-.09-.09-.21-.14-.34-.14h-.12c-.37.11-.66.33-.94.54-.13.1-.25.19-.39.28-.37.23-.82.4-1.3.51-.27.06-.55.09-.84.09Z"/>
          <path d="M216.94,43.3c.59.46,1.06.83,1.34,1.55.39,1,.4,2.15.4,3.25v.11s0,1.65,0,1.65c.01,1.97.02,3.94.04,5.91.03,2.54-.04,5.02-.2,7.37-.11,1.6-.86,3.33-2.27,3.33-.17,0-.35-.02-.54-.07.05-.14.08-.29.08-.46,0-.18-.06-.35-.19-.48-.13-.14-.32-.22-.52-.22-.06,0-.12,0-.18.02-.42.11-.74.35-1.03.57-.12.09-.24.18-.37.26-.35.21-.78.38-1.23.48-.26.06-.52.08-.79.08-.61,0-1.21-.15-1.72-.43-.13-.07-.26-.1-.4-.1,0,0,0,0,0,0-.15-.06-.31-.09-.46-.09s-.3.03-.44.08c-.06-.2-.11-.64-.1-1.56,0-.09,0-.16,0-.2l-.08-3.36-.05-1.96c-.04-1.59-.08-3.17-.12-4.76l-.12-4.2-.07-2.32c0-.19-.01-.39-.02-.59-.04-.86-.08-1.74.16-2.51.19-.61.53-.82,1.05-1.15.08-.05.16-.1.24-.15l2.06-.02h1.3c0,.23.03.46.06.69.02.17.03.33.04.49l.12,1.9c.08,1.37.17,2.8.37,4.19.07.52.18,1.02.28,1.51.17.83.33,1.62.36,2.44.04,1.23.11,2.53.22,4.21.03.37.33.65.7.65.2,0,.39-.08.52-.22.13-.14.2-.32.19-.52-.04-1.21-.1-2.63-.21-4.06-.07-.87.01-1.72.09-2.61.05-.5.09-1.03.11-1.55.05-1.41-.01-2.83-.07-4.09l-.05-1.07-.04-.95c0-.17,0-.34,0-.51,0-.18,0-.36,0-.54h.64s.89-.01.89-.01M217.11,42.8c-.74,0-1.49.01-2.25.02.08.51.04,1.06.06,1.57.03.67.06,1.35.09,2.02.06,1.35.12,2.7.07,4.05-.05,1.43-.31,2.79-.2,4.22.1,1.35.16,2.69.21,4.04,0,.14-.11.22-.22.22-.1,0-.2-.06-.21-.19-.1-1.4-.18-2.79-.22-4.19-.04-1.37-.45-2.66-.64-4.01-.2-1.39-.29-2.79-.37-4.18-.04-.62-.08-1.24-.11-1.86-.03-.53-.14-1.12-.09-1.67-1.32.01-2.66.02-4.02.03-.68.46-1.31.7-1.61,1.65-.32,1.04-.19,2.19-.16,3.27.06,2.18.13,4.35.19,6.53.07,2.24.11,4.48.17,6.71.03,1.12.06,2.24.08,3.36,0,.31-.09,2.33.48,2.33.06,0,.12-.02.19-.06.12-.07.25-.1.37-.1.13,0,.27.04.38.1.03,0,.06-.01.08-.01.05,0,.1.01.16.04.59.32,1.28.49,1.96.49.3,0,.6-.03.89-.1.48-.1.96-.28,1.38-.54.42-.25.78-.65,1.26-.77.02,0,.04,0,.06,0,.1,0,.21.07.21.18-.02.58-.48.98-.94,1.27.18,0,.37,0,.55,0,0-.01-.02-.03-.03-.04-.1-.2.03-.4.23-.4.04,0,.08,0,.12.02.37.14.72.2,1.03.2,1.78,0,2.65-2.01,2.77-3.8.17-2.46.23-4.95.2-7.41-.03-2.52-.04-5.04-.05-7.56,0-1.19,0-2.42-.44-3.54-.36-.91-.96-1.35-1.64-1.87h0Z"/>
        </g>
        <path class="st1" d="M257.88,66.85c-.59,0-1.5.01-2.69.02,0-.01.01-.02.02-.03.21-.31.38-.66.53-1.01.15-.37.26-.74.34-1.12.08-.39.16-.79.09-1.19-.02-.13-.1-.25-.24-.27-.12-.03-.29.04-.33.17-.13.35-.19.71-.29,1.07-.09.33-.22.67-.35,1-.15.34-.33.66-.5.98-.07.13-.12.27-.18.42-.78,0-1.66.01-2.63.02.45-1.31.8-2.65.97-4.03.04-.28.06-.55.08-.84.12-1.92.1-3.89-.08-5.8-.05-.55-.89-.49-.86.06.13,1.85.03,3.63-.38,5.45-.09.42-.2.85-.29,1.28-.31,1.31-.66,2.63-1.12,3.9-7.04.06-17.87.14-30.78.24.31-.26.57-.55.74-.85.67-1.16.77-2.59.75-3.91-.02-1.45-.17-2.89-.22-4.33-.02-.24-.03-.49-.03-.73-.05-3.29.01-6.58-.06-9.87-.04-1.35-.17-2.76-.9-3.93-.16-.26-.36-.52-.6-.76,3.92-.03,7.63-.06,11.09-.09,7.71-.06,14.15-.11,18.83-.15.08.14.16.28.24.41.24.38.5.74.72,1.13.47.83.86,1.7,1.14,2.61.28.88.46,1.79.54,2.71.07.94.01,1.89.13,2.82.05.38.67.62.83.17.68-1.86.16-4.16-.46-5.97-.32-.94-.74-1.84-1.25-2.68-.25-.41-.52-.84-.83-1.22,1.06,0,2.02-.01,2.85-.01.02.41.19.8.34,1.2.22.59.43,1.19.62,1.79.38,1.15.71,2.33,1,3.52.59,2.42,1.18,4.84,1.32,7.35.03.56.87.5.87-.06-.01-2.6,0-5.2-.49-7.75-.24-1.24-.53-2.46-.89-3.66-.19-.64-.4-1.27-.62-1.91-.06-.16-.12-.33-.19-.49.16,0,.34,0,.49,0,.31,0,.6,0,.84,0,.35.82,1.11,1.61,1.51,2.32.54.95,1,1.95,1.38,2.97.8,2.15,1.32,4.4,1.5,6.68.11,1.32.11,2.67-.01,3.99-.09.96-.23,1.92-.45,2.86-.25,1.08-.58,2.15-.98,3.19-.28.73-.82,1.54-1.04,2.35Z"/>
        <g>
          <path class="st0" d="M262.31,65.21c-.29,0-.58-.03-.88-.05-.22-.02-.43-.04-.64-.05.41-1.01.74-2.04,1.02-3.12.63-2.47.89-5.01.79-7.54-.1-2.56-.58-5.02-1.41-7.32-.3-.83-.67-1.69-1.13-2.6h3.26c.24,0,.49.01.74.06.26,4.74.41,8.74.31,12.79-.03,1.11-.06,2.22-.1,3.32,0,.22-.01.45-.02.68-.02.88-.03,1.8-.26,2.62-.28,1.01-.87,1.21-1.69,1.21h0Z"/>
          <path d="M260.46,44.77h.88s1.51,0,1.51,0h.24s.23,0,.23,0c.16,0,.33,0,.5.02.25,4.64.4,8.58.3,12.57-.03,1.11-.06,2.21-.1,3.32,0,.22-.01.45-.02.67-.02.87-.03,1.77-.25,2.56-.24.86-.71,1.03-1.44,1.03-.27,0-.56-.03-.86-.05-.1,0-.2-.02-.31-.03.35-.89.65-1.84.9-2.83.63-2.49.9-5.05.8-7.61-.1-2.58-.58-5.07-1.42-7.39-.27-.73-.58-1.48-.96-2.27M259.84,44.27c-.06,0-.13,0-.2,0,.49.95.94,1.93,1.3,2.94.84,2.32,1.29,4.78,1.39,7.24.1,2.5-.17,5.04-.78,7.47-.29,1.14-.66,2.26-1.11,3.35-.01.03-.02.05-.03.08.03,0,.06,0,.08,0,.59,0,1.23.11,1.81.11.86,0,1.61-.24,1.93-1.4.29-1.06.25-2.26.28-3.35.04-1.11.07-2.22.1-3.33.1-4.35-.09-8.67-.33-13-.32-.09-.65-.1-.97-.1-.16,0-.32,0-.47,0-.01,0-.02,0-.04,0-.49,0-.98,0-1.47,0-.49,0-.98,0-1.47,0,0,0-.02,0-.02,0h0Z"/>
        </g>
        <path class="st1" d="M294.02,54.42c-.02-.63-.08-1.26-.19-1.87-.06-.31-.16-.61-.22-.91-.49.06-1,0-1.49-.02-.72-.01-1.45,0-2.17-.02-1.39-.02-2.79-.05-4.19-.12-2.36-.12-4.76-.18-7.12-.45.02.35-.01.71-.1,1.06-.09.33-.53.44-.73.14-.29-.43-.47-.82-.65-1.3-.15-.4-.34-.82-.67-1.11-.47-.41-1.13-.53-1.72-.65-.6-.13-1.2-.25-1.8-.37-1.28-.27-2.56-.54-3.85-.8-.6-.13-1.2-.25-1.79-.38-.35-.07-.7-.14-1.04-.23-.09.03-.19.05-.3.04-.15,4.22-.34,8.45-.53,12.67-.04.84-.05,1.69-.08,2.54.61-.22,1.28-.27,1.92-.37.61-.1,1.23-.2,1.84-.3,1.27-.21,2.53-.44,3.79-.71,1.11-.24,2.26-.52,3.22-1.15.89-.58,1.47-1.29,1.92-2.24.23-.48,1.06-.34,1.05.21,0,.15-.01.29-.03.42.9-.09,1.81-.1,2.69-.15,1.35-.08,2.7-.19,4.04-.28,2.58-.17,5.15-.35,7.73-.44.3-1.04.47-2.1.45-3.2Z"/>
        <g>
          <path class="st0" d="M295.75,54.73c0-.13.01-.27.01-.4,0-.17,0-.37,0-.57.55.02,1.1.03,1.65.03.75,0,1.5-.01,2.25-.03.58-.01,1.17-.02,1.75-.02,1.44,0,2.88-.01,4.31-.02h2.96s4.95-.04,4.95-.04c3.05-.02,6.1-.04,9.15-.04h.1c3.71,0,7.43-.04,11.15-.08,3.72-.04,7.44-.08,11.15-.08,2.07,0,4.14.01,6.21.04,1.46.02,2.91.04,4.37.04,1.13,0,2.27,0,3.41-.03-.03,0-1.1.32-1.44.42-.28.08-.53.19-.8.31-.08-.04-.17-.06-.26-.06-.6-.03-1.21-.05-1.81-.05-.8,0-1.6.02-2.4.04-.6.02-1.2.03-1.8.04h-.74c-1.75.03-3.5.05-5.25.06l-12.17.1c-7.99.07-15.99.11-23.98.15-1.75,0-3.5.03-5.26.05l-1.98.02c-.46,0-.93,0-1.4-.01-.48,0-.96-.01-1.44-.01-1.08,0-1.93.04-2.69.12Z"/>
          <path d="M345.19,53.73c2.24,0,4.27.01,6.21.04,1.56.02,2.99.04,4.37.04.54,0,1.09,0,1.63,0-.16.06-.32.12-.47.19-.08-.02-.15-.04-.23-.04-.56-.03-1.15-.05-1.82-.05-.8,0-1.6.02-2.4.04-.6.02-1.2.03-1.8.04h-.78c-1.74.03-3.47.05-5.21.06l-5.76.05-6.41.05c-8.34.07-16.75.12-23.98.15-1.74,0-3.48.03-5.22.05l-1.53.02c-.16,0-.33,0-.49,0-.46,0-.93,0-1.4-.01-.48,0-.96-.01-1.44-.01-.96,0-1.73.03-2.43.09,0-.04,0-.08,0-.13,0-.1,0-.2,0-.31.43.01.89.02,1.4.02.75,0,1.5-.01,2.25-.03.59-.01,1.17-.02,1.76-.02,1.44,0,2.87-.01,4.31-.02.99,0,1.98,0,2.96,0,1.66,0,3.31-.02,4.97-.03,3.05-.02,6.1-.04,9.15-.04h.07c3.72,0,7.49-.04,11.15-.08,3.65-.04,7.43-.08,11.15-.08M345.19,53.23c-7.43,0-14.87.16-22.29.16h-.07c-4.71,0-9.42.05-14.13.07-2.42.01-4.85,0-7.27.03-1.33,0-2.67.05-4,.05-.64,0-1.27,0-1.9-.04,0,.3,0,.58,0,.83,0,.23-.02.46-.03.69.97-.12,1.96-.15,2.96-.15s1.91.03,2.84.03c.17,0,.33,0,.5,0,2.25-.03,4.49-.06,6.74-.07,7.99-.04,15.98-.09,23.98-.15,4.06-.03,8.12-.07,12.17-.1,2-.02,4-.04,5.99-.06,1.39-.02,2.8-.08,4.2-.08.6,0,1.2.01,1.8.05.1,0,.19.05.26.1.29-.13.58-.26.88-.36.44-.13.89-.26,1.34-.39.73-.21,1.47-.39,2.22-.56-.71.01-1.41.02-2.12.04-1.16.02-2.32.03-3.47.03-1.45,0-2.91-.01-4.36-.04-2.07-.03-4.14-.04-6.22-.04h0Z"/>
        </g>
      </g>
      <g>
        <path class="st0" d="M29.44,68.28c-.67-1.63-1.07-3.24-1.22-4.9-.17-1.85-.15-3.68-.08-5.29.06.07.11.15.17.22.19.23.39.46.67.6.16.07.33.11.51.11.48,0,.98-.26,1.3-.68.33-.43.48-.95.59-1.44,3.21.84,6.79,1.25,10.93,1.25,3.07,0,6.11-.21,9.74-.52.81-.08,1.64-.15,2.35-.59.55-.34.97-.85,1.36-1.35l.13-.16c.32-.4.67-.81,1.1-1.08,0,2.45-.06,4.98-.14,7.51,0,.21-.01.42-.02.63-5.06.46-9.24.68-13.12.69-1.82,0-3.69-.09-5.49-.17-1.83-.08-3.72-.17-5.58-.17-.83,0-1.65.02-2.47.06-.22,0-.4.18-.42.42-.02.24.14.43.37.47.13.02.27.04.4.06-.04.1-.07.23-.08.37-.1,1.36-.43,2.69-.98,3.96Z"/>
        <path d="M56.73,54.97c-.01,2.28-.06,4.63-.14,7,0,.13,0,.27-.01.4-4.96.45-9.07.66-12.88.67-1.82,0-3.68-.09-5.49-.17-1.83-.08-3.73-.17-5.59-.17-.89,0-1.7.02-2.47.06-.36,0-.65.29-.67.65-.02.36.23.68.57.73.05,0,.09.02.14.02,0,.05-.01.1-.02.15-.08,1.13-.33,2.24-.73,3.31-.53-1.41-.85-2.81-.98-4.24-.14-1.59-.15-3.16-.11-4.6.14.15.31.28.52.38.19.09.4.13.61.13.55,0,1.13-.3,1.5-.78.31-.4.46-.85.57-1.29,3.16.8,6.69,1.19,10.75,1.19,3.08,0,6.13-.21,9.77-.52.79-.07,1.68-.16,2.44-.62.59-.36,1.02-.89,1.43-1.4l.13-.16c.2-.25.41-.51.65-.72M57.24,54.07c-.08.03-.15.06-.22.09h-.01c-.53.27-.93.73-1.32,1.22-.43.54-.86,1.1-1.43,1.45-.66.41-1.47.48-2.24.55-3.22.28-6.48.52-9.72.52-3.76,0-7.5-.33-11.12-1.31-.12.56-.24,1.14-.59,1.59-.26.34-.69.59-1.1.59-.14,0-.27-.03-.4-.09-.24-.11-.42-.32-.58-.53-.21-.27-.41-.54-.59-.82-.09,2.02-.13,4.06.05,6.06.18,1.94.69,3.75,1.46,5.49.7-1.43,1.13-2.96,1.24-4.56.02-.27.12-.46.27-.58-.27-.04-.53-.07-.8-.12-.23-.03-.2-.38.03-.39.82-.04,1.64-.06,2.46-.06,3.69,0,7.4.34,11.08.34,4.44,0,8.94-.3,13.36-.71.01-.29.02-.57.03-.85.09-2.64.13-5.27.14-7.91h0Z"/>
      </g>
      <g>
        <path class="st0" d="M61.67,86.1c-.4,0-1.15-.69-1.7-5.33l-.04-.34c-.33-2.22-.55-4.5-.76-6.7l-.08-.82c-.11-1.17-.22-2.41-.31-3.8.39,1.04.83,2.06,1.31,3.04.35.7.92,1.63,1.87,1.7h.12c.35,0,.69-.11.98-.22l.44-.16c-.04,1.74-.14,3.5-.25,5.29-.1,1.56-.22,2.83-.38,4.01-.02.17-.04.38-.06.61-.08.9-.2,2.14-.78,2.57-.13.09-.24.14-.35.14Z"/>
        <path d="M59.14,70.71c.23.53.47,1.05.72,1.56.37.75,1,1.75,2.07,1.84.05,0,.09,0,.14,0,.4,0,.76-.13,1.07-.24l.1-.04c-.05,1.62-.14,3.25-.24,4.91-.1,1.55-.22,2.82-.38,3.99-.02.18-.04.39-.07.62-.07.81-.18,2.02-.68,2.39-.11.08-.17.09-.2.09-.09,0-.86-.14-1.45-5.11-.02-.15-.03-.26-.04-.35-.33-2.22-.55-4.5-.76-6.71l-.08-.79c-.07-.7-.13-1.42-.19-2.18M58.4,67.23c.12,1.91.25,3.81.44,5.71.24,2.51.47,5.03.84,7.53.11.79.57,5.88,1.99,5.88.15,0,.32-.06.49-.19.84-.62.82-2.45.95-3.35.19-1.34.3-2.67.39-4.03.11-1.88.22-3.77.26-5.66-.26.1-.52.19-.79.28-.29.1-.59.21-.89.21-.03,0-.07,0-.1,0-.79-.06-1.31-.85-1.66-1.56-.77-1.55-1.41-3.16-1.91-4.81h0Z"/>
      </g>
      <g>
        <path class="st0" d="M201.98,61.56c-.81,0-1.68-.19-2.64-.57-1.1-.43-2.31-.65-3.61-.65-2.38,0-4.21.73-4.29.76l-121.35-.98v-.52c-.02-1.19-.03-2.42-.1-3.64,24.05-.83,111.78-2.24,112.67-2.25.12,0,10.96-.86,17.69-.86,4.56,0,5.06.4,5.12.48.02.4.14,1.16.29,2.03.32,1.86.84,4.98.34,5.58-.04.05-.08.06-.12.06h0c-.25-.05-.42-.07-.61-.07-.46,0-.9.13-1.36.27-.57.17-1.21.36-2.03.36Z"/>
        <path d="M200.35,53.11c3.65,0,4.62.26,4.87.37.04.46.16,1.15.29,1.93.24,1.43.8,4.74.42,5.34-.18-.04-.37-.06-.56-.06-.49,0-.95.14-1.43.28-.58.17-1.18.35-1.96.35s-1.61-.18-2.55-.55c-1.13-.44-2.37-.67-3.7-.67-2.15,0-3.87.58-4.29.74l-121.1-.96v-.28c-.01-1.11-.03-2.26-.08-3.4,24.41-.83,111.53-2.23,112.44-2.25.11,0,10.94-.86,17.65-.86M200.35,52.61c-6.81,0-17.69.86-17.69.86,0,0-88.97,1.43-112.93,2.26.09,1.55.09,3.1.11,4.65l121.69.96s1.84-.74,4.2-.74c1.1,0,2.32.16,3.52.63,1.11.44,1.99.58,2.73.58,1.53,0,2.44-.63,3.4-.63.16,0,.31.02.47.06.05.01.09.02.13.02,1.4,0-.18-6.37-.27-7.96-.03-.51-2.28-.69-5.36-.69h0Z"/>
      </g>
      <g>
        <path class="st0" d="M66.76,71.61c-.12,0-.25-.02-.38-.06-2.55-.74-4.23-3.15-5-7.18-.57-3-.97-5.77-1.21-8.45-.27-3.05-.25-5.82.07-8.47.29-2.42.85-5.45,2.55-7.49.09-.1.25-.17.42-.17.15,0,.29.05.35.13.05.06.07.15.04.26-.09.41-.18.81-.28,1.22l-.05.2.19.09c.23.1.62.35.69.85.31,2.22.52,4.52.71,6.76.55,6.34,1.13,12.89,4.29,18.59l.05.09.1.03c.46.12.82.66.85,1.25,0,.24-.04.83-.66,1.05-.5.17-1.01.29-1.52.36l-.16.02-.05.16c-.11.37-.43.77-1,.77h0Z"/>
        <path d="M63.21,40.04c.09,0,.15.03.16.04,0,0,0,.02,0,.06-.09.41-.18.81-.28,1.21l-.1.4.38.17c.18.08.49.28.54.66.31,2.21.51,4.51.71,6.74.56,6.36,1.13,12.94,4.32,18.69l.1.19.21.05c.35.09.64.54.66,1.02,0,.23-.04.65-.49.81-.48.17-.98.28-1.47.35l-.32.04-.09.31c-.08.28-.33.59-.76.59-.1,0-.2-.02-.31-.05-2.45-.71-4.08-3.06-4.82-6.99-.57-3-.97-5.75-1.21-8.43-.27-3.03-.25-5.78.07-8.41.29-2.38.84-5.37,2.5-7.36.04-.05.13-.08.23-.08M63.21,39.54c-.23,0-.47.09-.61.26-1.7,2.04-2.29,5.05-2.61,7.62-.35,2.84-.33,5.68-.07,8.52.26,2.84.68,5.67,1.21,8.48.58,3.05,1.91,6.43,5.18,7.38.16.05.31.07.45.07.63,0,1.08-.41,1.24-.94.52-.06,1.05-.19,1.57-.37,1.32-.46.91-2.48-.21-2.78-4.25-7.66-3.77-16.8-4.97-25.26-.07-.5-.41-.85-.83-1.05.1-.41.2-.81.28-1.23.1-.46-.26-.7-.64-.7h0Z"/>
      </g>
      <g>
        <path class="st0" d="M209.38,67.5c-.45,0-.99-.23-1.18-.89-1.1-3.86-1.47-8.02-1.66-11.22-.12-1.93-.09-3.87-.07-5.75v-.43c.02-1.61.04-3.43.57-4.93.09-.25.3-.28.38-.28.18,0,.4.11.45.35.27,1.22.26,2.57.25,3.88,0,.54,0,1.06,0,1.58.05,1.72.24,3.47.42,5.17l.03.32c.3,2.86.86,5.7,1.39,8.45.16.83.32,1.65.48,2.48.07.35,0,.66-.19.89-.2.24-.53.38-.88.38h0Z"/>
        <path d="M207.42,44.25c.06,0,.18.03.21.16.26,1.2.25,2.54.24,3.83,0,.54,0,1.07,0,1.58.05,1.72.23,3.46.41,5.14l.04.36c.3,2.87.86,5.72,1.4,8.48.16.82.32,1.65.47,2.47.05.28,0,.51-.13.68-.15.18-.41.29-.69.29-.36,0-.79-.19-.94-.71-1.1-3.83-1.46-7.98-1.65-11.16-.12-1.91-.09-3.77-.07-5.73v-.42c.02-1.59.04-3.39.56-4.86.02-.05.05-.11.15-.11M207.42,43.75c-.26,0-.51.14-.62.44-.59,1.68-.56,3.68-.58,5.44-.02,1.93-.05,3.84.07,5.77.23,3.75.64,7.65,1.67,11.27.21.73.83,1.07,1.42,1.07.76,0,1.5-.56,1.31-1.56-.68-3.64-1.47-7.22-1.86-10.91-.19-1.81-.4-3.65-.45-5.47-.05-1.79.12-3.76-.26-5.51-.08-.35-.39-.55-.69-.55h0Z"/>
      </g>
      <g>
        <path class="st0" d="M214.17,68.48c-.45,0-.9-.06-1.34-.16-.22-.05-.38-.16-.48-.3l-.08-.11s-.13,0-.14,0c-.64,0-1.17-.14-1.63-.41-.22-.13-.35-.44-.32-.75l.02-.13-.1-.09c-.07-.06-.14-.12-.21-.2-.71-.77-.83-1.88-.28-2.68.57-.83,1.98-1.44,3.36-1.44.08,0,.17,0,.25,0l.3.02-.03-.3c-.09-.8-.21-1.6-.32-2.4-.16-1.11-.32-2.25-.42-3.39-.21-2.24-.33-4.54-.36-6.84-.02-1.25-.02-2.38.15-3.49l.06-.44c.1-.79.19-1.47.75-2.04.56.75.6,1.92.64,2.95,0,.2.01.39.02.58.04.64.06,1.28.09,1.91.03.71.05,1.41.1,2.12.16,2.68.46,5.39.87,8.06.07.44.16.89.25,1.35.14.72.29,1.47.37,2.21l.03.23.47-.02c.87,0,1.68-.15,2.48-.46.11-.04.22-.06.34-.06.28,0,.54.11.7.3.14.16.19.35.16.57-.06.45-.15.88-.27,1.28l-.02.06v.06c.09.36-.03.83-.42,1.04l-.07.04-.04.07c-.97,1.76-2.83,2.85-4.87,2.85h0Z"/>
        <path d="M213.29,43.8c.38.68.41,1.64.44,2.5,0,.2.01.4.02.59.04.63.06,1.27.08,1.9.03.71.05,1.42.1,2.13.16,2.69.46,5.41.88,8.08.07.44.16.9.25,1.36.14.72.28,1.46.36,2.19l.05.46.47-.02s.05,0,.07,0c.05,0,.11,0,.16,0,.9,0,1.73-.15,2.57-.47.08-.03.16-.05.25-.05.2,0,.4.08.51.21.09.1.12.22.1.37-.06.43-.15.85-.26,1.24l-.04.12.03.13c.06.26-.03.62-.3.76l-.13.07-.07.13c-.92,1.68-2.7,2.72-4.65,2.72-.43,0-.86-.05-1.28-.16-.16-.04-.27-.11-.34-.2l-.15-.22h-.26s-.06,0-.06,0c-.54,0-1.03-.13-1.45-.37-.13-.08-.22-.3-.19-.51l.03-.27-.2-.17c-.06-.05-.13-.11-.18-.17-.64-.69-.74-1.66-.26-2.37.52-.77,1.85-1.33,3.15-1.33.08,0,.16,0,.24,0l.59.03-.07-.59c-.09-.8-.21-1.6-.32-2.4-.16-1.11-.32-2.25-.42-3.38-.21-2.24-.32-4.53-.35-6.82-.02-1.24-.02-2.35.15-3.45.02-.15.04-.3.06-.45.08-.64.15-1.16.45-1.61M213.3,43.11c-.05,0-.1.02-.14.05-.73.74-.73,1.62-.88,2.62-.17,1.17-.17,2.35-.15,3.53.03,2.29.15,4.58.36,6.86.18,1.94.52,3.86.74,5.79-.09,0-.18,0-.27,0-1.4,0-2.92.6-3.56,1.55-.64.95-.44,2.19.31,2.99.07.08.15.15.23.21-.04.38.12.81.44,1,.54.31,1.12.44,1.7.44.02,0,.04,0,.07,0,.13.18.33.33.63.4.47.12.94.17,1.4.17,2.08,0,4.06-1.12,5.09-2.98.48-.25.67-.83.56-1.31.13-.44.22-.89.28-1.32.09-.7-.5-1.15-1.11-1.15-.15,0-.29.03-.43.08-.77.3-1.56.44-2.39.44-.06,0-.13,0-.19,0,0,0,0,0,0,0-.02,0-.04,0-.06,0-.13-1.22-.44-2.44-.61-3.57-.42-2.66-.71-5.34-.87-8.03-.08-1.34-.11-2.69-.18-4.03-.07-1.2.02-2.72-.78-3.67-.04-.05-.11-.08-.18-.08h0Z"/>
      </g>
      <path class="st3" d="M251.08,63.02c-.31,1.31-.66,2.63-1.12,3.9-7.04.06-17.87.14-30.78.24.31-.26.57-.55.74-.85.67-1.16.77-2.59.75-3.91-.02-1.45-.17-2.89-.22-4.33,1.57.56,2.98,1.72,4.51,2.49,4.54,2.26,9.96,1.01,15.02,1.32,2.83.17,5.61.85,8.44,1.08.87.07,1.77.1,2.66.06Z"/>
      <g>
        <path class="st0" d="M251.99,66.65c.42-1.28.7-2.45.85-3.56,1.51-.26,2.84-.74,3.95-1.43.85-.54,1.62-1.22,2.37-1.88.29-.26.58-.51.88-.76-.09.77-.22,1.52-.38,2.23-.24,1.03-.56,2.1-.97,3.16-.11.28-.26.58-.42.89-.21.42-.44.86-.58,1.31-.5,0-1.2.01-2.06.02.12-.22.23-.44.33-.68.15-.35.26-.73.35-1.17.09-.45.16-.86.09-1.29-.04-.25-.21-.43-.44-.48h-.1c-.23-.01-.44.13-.51.32-.09.23-.14.47-.2.72-.03.12-.06.25-.09.38-.09.33-.22.65-.34.97-.09.21-.2.42-.32.63l-.17.33c-.05.09-.09.18-.13.28l-2.11.02Z"/>
        <path d="M259.7,59.64c-.08.53-.18,1.05-.29,1.55-.23,1.02-.55,2.08-.95,3.13-.1.27-.25.56-.41.87-.19.38-.39.77-.53,1.17-.39,0-.88,0-1.46.01.05-.11.1-.22.15-.33.15-.36.27-.76.37-1.22.08-.39.18-.87.09-1.37-.06-.35-.31-.62-.63-.68-.05-.01-.11-.02-.16-.02-.34,0-.64.2-.75.49-.1.25-.15.5-.21.74-.03.12-.06.25-.09.37-.09.31-.21.64-.33.93-.09.21-.2.42-.31.62-.06.11-.12.22-.17.32-.03.05-.05.11-.08.16h-.96s-.64.01-.64.01c.34-1.1.58-2.12.73-3.09,1.47-.27,2.77-.75,3.87-1.44.87-.55,1.65-1.23,2.4-1.9.13-.11.25-.22.38-.33M260.34,58.44c-1.23.97-2.35,2.16-3.69,3-1.23.77-2.61,1.21-4.05,1.43-.17,1.37-.52,2.71-.97,4.03.97,0,1.85-.01,2.63-.02.05-.14.11-.29.18-.42.17-.33.35-.64.5-.98.13-.33.26-.66.35-1,.1-.36.16-.72.29-1.07.04-.11.17-.17.28-.17.02,0,.04,0,.06,0,.14.03.22.15.24.27.07.4,0,.8-.09,1.19-.08.38-.19.76-.34,1.12-.15.35-.32.69-.53,1.01,0,0-.02.01-.02.03,1.19,0,2.1-.02,2.69-.02.21-.81.76-1.62,1.04-2.35.4-1.04.73-2.11.98-3.19.22-.94.36-1.9.45-2.86h0Z"/>
      </g>
      <g>
        <path class="st0" d="M227.97,54.54c-.09,0-.18-.02-.27-.05-.27-.1-.48-.34-.53-.63s.06-.58.28-.77c.12-.1.24-.16.39-.18.05,0,.1-.01.15-.01.09,0,.18.02.27.05l.1.03c.11.04.22.12.31.22.09.11.15.23.17.37.02.13.01.26-.04.39-.05.13-.12.24-.23.33-.18.16-.31.22-.46.24-.05,0-.1.01-.15.01Z"/>
        <path d="M227.98,53.15c.06,0,.13.01.23.04h.04c.09.04.17.09.23.16.06.07.1.16.12.25.02.09,0,.18-.02.27-.03.09-.09.17-.19.26l-.03.03c-.08.07-.17.11-.27.13-.04,0-.07,0-.11,0-.06,0-.13-.01-.19-.03-.19-.07-.34-.24-.37-.44-.03-.2.04-.41.2-.54.08-.07.17-.11.27-.13.04,0,.07,0,.11,0M227.98,52.65c-.06,0-.13,0-.19.02-.19.03-.36.11-.51.24-.29.25-.43.63-.37,1.01.07.38.34.7.7.82.12.04.23.06.35.06.06,0,.13,0,.19-.02.19-.03.36-.11.51-.24.02-.02.04-.04.07-.06.14-.12.24-.27.31-.44.06-.17.07-.34.04-.52-.03-.18-.11-.34-.23-.49-.12-.14-.27-.24-.44-.3-.03,0-.05-.01-.08-.02-.12-.04-.23-.06-.35-.06h0Z"/>
      </g>
      <g>
        <path class="st0" d="M233.88,57.88c-.1,0-.17-.03-.24-.07-.12-.05-.18-.1-.23-.17l-.09-.13c-.09-.11-.14-.22-.16-.34v-.2c0-.09.04-.2.11-.3l.15-.16s.12-.08.2-.1c.09-.04.15-.05.21-.05.16,0,.23.03.29.07.11.05.17.1.23.16l.14.14c.07.08.12.19.14.31v.21c0,.09-.04.2-.11.3l-.15.16s-.12.08-.2.1c-.1.04-.16.05-.22.05h-.06Z"/>
        <path d="M233.81,56.13c-.09,0-.18.02-.27.05-.12.03-.23.08-.32.17-.06.06-.11.12-.17.19-.09.14-.14.28-.16.45,0,.08,0,.16.01.24.03.16.1.31.21.44.03.05.06.09.1.14.08.1.18.18.3.22.1.06.22.1.35.1.03,0,.06,0,.09,0,.09,0,.18-.02.27-.05.12-.03.23-.09.33-.17.06-.06.11-.13.17-.19.09-.14.15-.29.16-.46v-.24c-.04-.17-.11-.32-.22-.45-.04-.04-.08-.08-.12-.12-.08-.1-.18-.17-.29-.22-.1-.06-.22-.1-.34-.1-.03,0-.06,0-.09,0h0Z"/>
      </g>
      <g>
        <path class="st0" d="M236.5,60.94s-.08-.02-.1-.05c-.03-.03-.04-.08-.02-.13.02-.04.06-.08.1-.09l.16-.03-.02.2s-.06.07-.1.08h-.02Z"/>
        <path d="M236.64,60.4s-.03,0-.05,0c-.05,0-.11.02-.16.03-.13.02-.25.12-.29.25-.04.13-.02.27.07.37.07.09.18.13.29.13.02,0,.04,0,.07,0,.13-.02.25-.12.29-.25.02-.05.04-.1.05-.16.03-.09.01-.2-.05-.28-.05-.06-.13-.1-.22-.1h0Z"/>
      </g>
      <g>
        <path class="st0" d="M242.95,58.74l-.21-.05c-.09-.03-.2-.1-.28-.2l-.16-.16s-.06-.07-.09-.1l-.07-.1-.16-.23s-.03-.12-.05-.2c-.04-.19.02-.32.07-.4.03-.04.06-.08.11-.1.08-.06.12-.07.17-.08.13-.02.2-.03.26-.03.11,0,.2.04.3.07l.1.04c.11.04.17.07.23.1l.28.14c.08.06.16.15.22.28.04.08.06.16.06.25.01.12,0,.21-.03.29-.03.1-.08.17-.14.23-.08.1-.15.16-.24.19-.11.05-.21.07-.32.07h-.06Z"/>
        <path d="M242.55,57.34h.02s.12.03.2.06l.08.03.07.02c.05.02.1.04.14.07l.09.05.16.08c.06.05.11.11.15.19.02.04.03.08.03.12v.04s0,.04,0,.04c0,.04,0,.08-.03.16-.01.04-.03.08-.07.11l-.03.03-.03.03s-.06.06-.12.09c-.06.03-.12.04-.22.04l-.11-.02h-.06c-.07-.04-.13-.09-.21-.17l-.15-.15s-.04-.05-.07-.09l-.03-.04-.05-.06-.1-.15s-.02-.1-.03-.15v-.06s0-.1.05-.17l.05-.03.03-.03h.07c.06-.02.11-.03.17-.03M242.55,56.84c-.1,0-.2.02-.3.03-.09.01-.18.05-.25.11-.09.04-.15.11-.21.19-.1.15-.15.34-.11.52.02.11.04.24.09.35l.12.19s.01.02.02.02l.03.04s.04.05.06.08c.04.05.08.1.12.15l.15.15c.11.13.25.23.42.29.08.02.16.03.24.05.03,0,.05,0,.08,0,.14,0,.28-.03.41-.09.13-.05.23-.13.31-.24.1-.09.16-.2.2-.32.05-.12.06-.24.05-.37,0-.13-.02-.25-.08-.37-.08-.16-.19-.29-.33-.39-.06-.03-.13-.06-.19-.1-.1-.05-.19-.11-.3-.14-.03-.01-.06-.02-.09-.03-.12-.04-.25-.09-.38-.1-.02,0-.04,0-.05,0h0Z"/>
      </g>
      <g>
        <path class="st0" d="M237.3,51.49l-.11-.02c-.2-.04-.37-.07-.54-.11l-.17-.04c-.11-.03-.21-.05-.31-.09l-.17-.09-.12-.12s-.06-.1-.08-.13l-.05-.17s0-.16,0-.16l.03-.13.04-.08h.01s.08-.13.08-.13l.08-.09.13-.08s.13-.04.16-.05l.57-.05c.16-.01.32-.02.48-.02.13,0,.25.03.29.04l.13.05c.09.03.16.07.22.14.11.08.16.15.2.24l.07.22v.2c0,.07-.03.15-.07.22-.04.09-.06.13-.1.16-.09.11-.16.17-.25.2l-.22.07c-.09.02-.16.03-.23.03h-.06Z"/>
        <path d="M237.36,49.67l.06.5h-.03s.13.02.14.02l.06.02.06.03h.03s.08.04.11.08l.03.03.04.03s.06.06.07.06l.03.09.03.1v.14s0,.09-.03.13l-.03.05-.02.05-.04.03-.03.04s-.06.07-.07.07l-.23.07c-.07.01-.12.03-.18.03,0,0,0,0-.01,0l-.13-.02c-.16-.03-.33-.06-.49-.1l-.17-.04c-.09-.02-.18-.04-.27-.07l-.11-.06-.09-.08s-.03-.05-.05-.07c-.01-.03-.02-.08-.03-.11,0-.04,0-.1,0-.12l.02-.06s.02-.05.04-.08l.02-.02.02-.02.04-.05h0s.04-.03.04-.03l.06-.04s.08-.02.11-.03l.52-.05c.15-.01.31-.02.49-.02v-.5M237.42,49.67s-.01,0-.02,0h0s-.05,0-.08,0c-.17,0-.34,0-.51.02l-.52.05s-.04,0-.06,0c-.04,0-.19.05-.23.07-.03.02-.07.04-.1.06-.04.02-.08.04-.11.07-.03.03-.05.06-.08.09-.06.05-.1.11-.13.19-.06.12-.04.07-.05.11,0,0,0,.01,0,.02-.02.07-.04.09-.04.2,0,.02,0,.17,0,.2,0,0,0,.01,0,.02,0,0,0,0,0,0,0,0,.06.21.07.22.02.04.11.18.13.21.06.05.12.11.18.16.07.03.14.07.21.1.16.05.33.09.5.13.17.05.35.08.53.11.05,0,.09.02.14.03.03,0,.07,0,.1,0,.1,0,.2-.02.3-.05.08-.03.16-.05.25-.08.13-.05.23-.14.32-.24.07-.06.12-.13.15-.22.07-.11.11-.23.11-.37v-.25c-.04-.08-.06-.16-.09-.25-.05-.13-.13-.23-.24-.31-.09-.1-.2-.17-.33-.21-.04-.02-.08-.03-.12-.05-.04-.01-.23-.05-.27-.05,0,0,0,0-.01,0h0Z"/>
      </g>
      <g>
        <path class="st0" d="M227.26,49.91c-.07,0-.13-.01-.19-.03-.15-.07-.21-.1-.29-.2-.04-.05-.08-.11-.11-.16l-.05-.19c-.02-.07-.03-.13-.03-.17l.05-.21c.02-.06.06-.12.12-.18l.09-.08.15-.1c.12-.06.2-.08.26-.1.04,0,.16,0,.21,0,.01,0,.17.04.17.04,0,0,.12.06.14.08.07.05.14.13.19.23.03.07.05.13.04.2.01.11,0,.17-.02.24-.02.06-.05.12-.1.18l-.09.16-.06.08s-.08.09-.14.12c-.09.06-.15.09-.22.1-.04,0-.08.01-.12.01Z"/>
        <path d="M227.44,48.73s.07.01.1.02c.03.02.07.04.1.05.04.03.08.08.11.14.01.02.02.04.02.07v.04s0,.04,0,.04c0,.03,0,.05-.02.09,0,.03-.03.06-.06.1l-.03.04-.02.05-.03.06s-.01.01-.02.02l-.03.05-.02.03s-.03.04-.06.05l-.04.02-.03.03s-.04.02-.08.03c-.02,0-.04,0-.06,0-.04,0-.08,0-.1-.02-.13-.06-.15-.07-.19-.12-.03-.03-.05-.07-.06-.09l-.05-.17s-.02-.05-.02-.08l.03-.14s.03-.06.05-.09l.04-.04.02-.03h0s0,0,0,0h0s.07-.04.07-.04h0s0,0,0,0l.03-.02h0s.05-.03.05-.03c.05-.02.09-.03.14-.05.04,0,.1,0,.14,0M227.47,48.23s0,0,0,0c0,0,0,0,0,0-.05,0-.17,0-.22.01-.02,0-.03,0-.05,0-.07.02-.15.05-.23.07,0,0,0,0-.01,0,0,0-.02,0-.02.01,0,0,0,0-.01,0-.02.01-.04.02-.06.04-.03.02-.06.03-.09.05-.01,0-.02.02-.03.02-.01,0-.02.01-.03.02,0,0,0,0,0,0,0,0-.01.01-.02.02,0,0,0,0,.01,0-.04.03-.09.06-.12.1-.09.08-.15.19-.19.3h0s-.05.23-.05.23c-.01.09.01.18.04.27,0,0,0-.01-.01-.02,0,.01.01.04.02.06,0,.01,0,.03,0,.04,0,.02.02.03.02.04,0,.03.02.06.03.09,0,0,0,0,0,0,0,0,0,0,0,.01.04.08.09.15.14.22.13.16.23.2.4.28.09.03.18.05.28.05.05,0,.1,0,.15-.01.11-.02.21-.06.3-.13.1-.05.18-.13.25-.23,0-.01.01-.03.02-.04.01-.02.03-.03.04-.04,0,0,0,0,0,0,.02-.04.04-.08.06-.12.06-.07.11-.15.14-.24.04-.1.05-.21.04-.32,0-.11-.02-.22-.07-.32-.07-.14-.16-.25-.29-.34,0,0-.19-.1-.2-.1-.02,0-.2-.04-.21-.04,0,0,0,0-.01,0,0,0,0,0,0,0h0Z"/>
      </g>
      <g>
        <path class="st0" d="M245.61,52.81l-.17-.04c-.06-.02-.14-.08-.2-.15l-.09-.15s-.03-.09-.02-.15c0-.1,0-.16.02-.22.03-.08.06-.13.1-.17.07-.08.12-.12.18-.15l.14-.07c.07-.03.15-.06.25-.07l.28-.04h.02s.18.01.18.01c.05,0,.09.02.14.05l.08.06.1.16s.02.07.02.12v.03s-.01.13-.01.13c0,.05-.02.09-.06.14l-.11.12-.07.04-.11.08c-.12.08-.17.13-.23.14l-.14.05c-.1.04-.17.06-.25.06h-.04Z"/>
        <path d="M246.18,51.86h.01s.06.02.06.02h.04s.06.05.06.05h0s0,.01,0,.01l.04.07v.05s0,.01,0,.01v.04s-.02.05-.02.05l-.05.06h0s-.05.05-.05.05l-.13.09-.06.04s-.08.06-.1.07l-.07.02-.07.02h-.03s-.03.02-.03.02c-.04.02-.07.03-.13.03l-.11-.02s-.06-.03-.08-.06l-.07-.11s0-.02,0-.03v-.04s0-.04,0-.04c0-.01,0-.03.02-.09,0-.02.02-.03.03-.04l.03-.03.03-.04s.02-.02.07-.04l.13-.06s.1-.04.18-.05l.31-.05s0,0,.01,0M246.18,51.36s-.08,0-.12.01c-.09.01-.18.03-.28.04-.11.02-.21.04-.32.09l-.13.06c-.1.04-.18.11-.25.19-.08.07-.13.16-.16.26-.04.1-.05.2-.04.3,0,.1.02.2.06.29.04.06.08.12.11.18.09.11.2.19.34.23l.2.04s.04,0,.06,0c.12,0,.23-.02.33-.07.05-.02.09-.03.14-.05.11-.04.2-.11.29-.18.07-.05.15-.11.22-.16.04-.05.09-.09.13-.14.06-.08.09-.16.1-.25.02-.06.03-.12.02-.18,0-.09-.02-.18-.06-.27-.03-.05-.07-.11-.1-.16-.05-.04-.09-.08-.14-.13-.08-.06-.16-.09-.25-.1-.05-.01-.1-.02-.15-.02h0Z"/>
      </g>
      <g>
        <path class="st0" d="M250.34,58.03c-.12,0-.24-.06-.33-.17-.16-.18-.13-.36-.07-.47.09-.19.29-.33.49-.33.12,0,.24.06.33.17.16.18.13.36.07.47-.09.19-.29.33-.49.33h0Z"/>
        <path d="M250.43,57.32s.08,0,.14.08c.06.07.07.13.04.2-.05.1-.16.18-.26.18-.03,0-.08,0-.14-.08-.06-.07-.07-.13-.04-.2.05-.1.16-.18.26-.18M250.43,56.82c-.54,0-1.06.67-.6,1.21.15.18.34.26.52.26.54,0,1.06-.67.6-1.21-.15-.18-.34-.26-.52-.26h0Z"/>
      </g>
      <path class="st3" d="M293.31,54.53c-4.54.91-9.28-.54-13.75.9-.3.1-.59.21-.87.34-.33-.23-.77-.31-1.26-.08-2.1,1.17-4.59.34-6.86.53-1.45.12-2.98.61-4.08,1.55-.31-.07-.62-.13-.93-.19-.67-.12-.99.89-.44,1.23.11.07.23.13.35.2-.16.28-.29.59-.38.92-.25.91.27,1.64,1.17,1.81,2.28.43,4.66.38,6.92-.15,1.12-.26,2.22-.63,3.26-1.12.8-.38,1.5-.85,2.18-1.37,4.99-.75,10.27-.48,15.09-2.03.01,0,.02,0,.03,0,0,0,0,0,0,0,.11-.03.21-.06.32-.1,1.4-.48.65-2.72-.76-2.44Z"/>
      <g>
        <path class="st0" d="M133.8,50.7c-5.11,0-9.25-.6-13.02-1.87-.72-.24-1.56-.81-1.77-1.43-.08-.24-.06-.47.09-.68.29-.44.93-.51,1.58-.53l37.92-.97c1.8-.05,3.63-.17,5.57-.31,2.4-.17,4.88-.34,7.28-.34,1.95,0,3.63.11,5.16.35,2,.31,3.15,1.02,3.08,1.9-.09,1.13-2.09,2.39-4.63,2.39-.11,0-.22,0-.32,0-2.9-.12-5.84-.18-8.75-.18-5.65,0-11.37.23-17,.69-1.12.09-2.24.19-3.36.29-3.89.34-7.91.7-11.82.7h0Z"/>
        <path d="M171.44,44.82c1.93,0,3.61.11,5.12.35,1.83.28,2.92.91,2.87,1.64-.07.88-1.81,2.16-4.38,2.16-.1,0-.21,0-.31,0-2.9-.12-5.85-.18-8.76-.18-5.66,0-11.38.23-17.02.69-1.12.09-2.24.19-3.36.29-3.88.34-7.9.7-11.8.7-5.09,0-9.2-.59-12.94-1.86-.76-.26-1.46-.81-1.62-1.27-.06-.17-.04-.31.06-.46.22-.34.82-.4,1.38-.41l37.92-.97c1.81-.05,3.73-.18,5.58-.31,2.4-.17,4.87-.34,7.27-.34M171.44,44.32c-4.29,0-8.76.55-12.86.65-12.64.32-25.28.64-37.92.97-.66.02-1.42.09-1.78.64-.66,1,.69,2.1,1.82,2.49,4.23,1.43,8.63,1.89,13.1,1.89,5.05,0,10.17-.58,15.21-.99,5.65-.46,11.31-.69,16.98-.69,2.91,0,5.83.06,8.74.18.11,0,.22,0,.34,0,4.56,0,7.47-3.88,1.59-4.79-1.68-.26-3.42-.35-5.2-.35h0Z"/>
      </g>
      <g>
        <path class="st0" d="M249.84,52.64c-.7,0-1.41-.05-2.09-.1l-.71-.05c-4.45-.27-8.97-.63-13.34-.97l-1.42-.11c-.36-.03-.75-.05-1.14-.06-1.6-.07-3.42-.15-4.61-1.08-.69-.53-1.11-1.34-1.13-2.15-.01-.48.11-1.18.79-1.76.96-.84,2.36-.95,3.59-.95.39,0,.77.01,1.14.02.36.01.7.02,1.03.02h1.2c2.12-.02,4.24-.03,6.35-.05,1.63-.02,3.25-.03,4.88-.03.86,0,1.73,0,2.59.01h1.38c1.99.01,4.04.02,6.04.22.23.02.29.25.28.37v.13s.1.08.1.08c.07.05.13.11.17.17,1.15,1.74.69,4-1.06,5.25-1.01.72-2.25,1.04-4.01,1.04h0Z"/>
        <path d="M244.34,45.62c.87,0,1.73,0,2.6.01.46,0,.92,0,1.38,0,1.98,0,4.03.01,6.02.22.06,0,.06.11.06.11v.26s.2.16.2.16c.05.04.09.08.11.11,1.07,1.62.64,3.73-1,4.91-.96.69-2.15,1-3.87,1-.69,0-1.4-.05-2.08-.1-.24-.02-.48-.03-.72-.05-4.43-.27-8.92-.62-13.27-.97l-1.49-.12c-.37-.03-.75-.05-1.15-.06-1.56-.07-3.34-.15-4.47-1.03-.63-.49-1.02-1.22-1.04-1.96-.01-.43.1-1.05.7-1.57.9-.78,2.24-.89,3.43-.89.38,0,.77.01,1.13.02.36.01.7.02,1.03.02h.08s.99,0,.99,0c2.16-.01,4.32-.02,6.48-.05,1.62-.02,3.24-.03,4.86-.03M244.34,45.12c-1.62,0-3.25.01-4.87.03-2.49.03-4.98.04-7.47.05-.02,0-.05,0-.07,0-.67,0-1.41-.05-2.17-.05-1.37,0-2.77.15-3.75,1.01-1.4,1.22-.99,3.25.36,4.3,1.56,1.21,4.02,1.05,5.89,1.2,4.92.39,9.84.79,14.77,1.09.91.05,1.87.14,2.82.14,1.47,0,2.93-.21,4.16-1.09,1.83-1.31,2.36-3.74,1.13-5.59-.06-.09-.14-.17-.23-.23,0-.29-.17-.59-.51-.62-2.47-.25-4.96-.21-7.45-.23-.87,0-1.73-.01-2.6-.01h0Z"/>
      </g>
      <g>
        <g>
          <path class="st0" d="M29.53,56.29c-.03-.1-.05-.21-.06-.31-.03-.42.02-.88.07-1.32l.03-.33c.04-.36.07-.74.18-1.06,0,0,.23-.71.27-.84-.02.27-.03.54-.02.81,0,.29-.03.58-.07.88-.02.17-.04.33-.06.5-.01.15-.02.29-.03.44-.02.32-.04.64-.1.94-.02.08-.05.16-.07.24-.03.08-.06.16-.08.25-.01-.07-.03-.14-.05-.2Z"/>
          <path d="M30.16,51.58c-.07,0-.14.04-.17.13-.15.49-.31.98-.47,1.47-.14.44-.17.94-.22,1.39-.05.46-.11.95-.08,1.41.02.26.13.49.14.75.01.23,0,.46.08.68.02.06.07.09.12.09.06,0,.12-.04.14-.11.08-.24.07-.49.1-.75.03-.22.14-.41.18-.62.09-.46.09-.95.13-1.41.04-.46.14-.94.13-1.41,0-.49.02-.96.08-1.44.02-.13-.08-.2-.17-.2h0Z"/>
        </g>
        <g>
          <path class="st0" d="M70.06,55.74s-.08,0-.08-.05c0-.17-.02-.34-.03-.52-.03-.38-.05-.76-.04-1.13v-.25c.03-.5.05-.98.12-1.45.02-.11.11-.14.18-.14s.21.04.22.17c.02.45-.01.9-.04,1.38l-.02.27c-.03.39-.1.79-.17,1.18l-.09.51-.05.04Z"/>
          <path d="M70.21,51.95c-.2,0-.39.11-.43.35-.09.58-.1,1.15-.12,1.74-.02.55.04,1.12.07,1.67,0,.19.17.29.33.29.14,0,.27-.08.3-.25.09-.57.21-1.14.25-1.71.04-.56.09-1.12.06-1.68-.01-.27-.24-.41-.46-.41h0Z"/>
        </g>
        <g>
          <path class="st0" d="M88.16,55.59c-2.99,0-5.4-.03-7.6-.09,3.98-.21,8.06-.3,12.01-.39l7.77-.17c.42,0,.84-.02,1.26-.04.65-.02,1.3-.05,1.95-.05,1.16,0,2.1.08,2.94.26-1.29.4-2.63.44-3.88.44,0,0-2.4-.02-2.4-.02l-7.58.03c-1.5,0-2.99.01-4.49.01Z"/>
          <path d="M103.56,55.1c.62,0,1.18.02,1.69.07-.89.11-1.78.13-2.62.13-.37,0-.74,0-1.11,0-.37,0-.74,0-1.12,0h-.18s-5.41.02-5.41.02l2.91-.06,2.63-.06c.42,0,.84-.03,1.27-.04.64-.02,1.3-.05,1.94-.05M103.56,54.6c-1.07,0-2.15.07-3.22.09-2.22.05-4.45.1-6.67.15-4.38.1-8.76.18-13.14.41-.33.02-.29.49.03.5,2.53.07,5.06.09,7.59.09,1.86,0,3.72,0,5.58-.02,2.16,0,4.33-.02,6.49-.03.06,0,.12,0,.18,0,.74,0,1.48.02,2.22.02,1.33,0,2.66-.06,3.96-.36.3-.07.24-.52-.03-.58-.98-.21-1.99-.27-3-.27h0Z"/>
        </g>
        <g>
          <path class="st0" d="M112.07,54.66c-.06,0-.11-.04-.11-.11l.1-.1h.21c.28-.02.56-.04.84-.04h.52c.12,0,.24,0,.35.01h.16s-.14.1-.14.1c-.12.02-.24.04-.36.05l-.52.04c-.28.02-.56.03-.83.04h-.22Z"/>
          <path d="M113.62,54.15h0c-.18,0-.35,0-.53,0-.35,0-.7.02-1.05.04-.19,0-.36.19-.34.38.02.19.17.33.36.33,0,0,.01,0,.02,0,.35-.02.7-.03,1.05-.05.18-.01.35-.02.53-.04.18-.02.35-.05.52-.08.15-.02.27-.14.26-.3-.01-.17-.15-.25-.3-.26-.18-.01-.35-.03-.53-.03h0Z"/>
        </g>
        <g>
          <path class="st0" d="M215.21,61.39c0-.32.03-.67-.06-.98-.04-.14-.24-.11-.27.02-.07.3-.02.64-.01.95,0,.34.02.68.03,1.02.03.67.11,1.33.15,2h.11c.01-.68.06-1.35.07-2.02,0-.33,0-.66-.01-.98Z"/>
          <path d="M215.03,60.32c-.06,0-.13.04-.15.11-.07.3-.02.64-.01.95,0,.34.02.68.03,1.02.03.67.11,1.33.15,2h.11c.01-.68.06-1.35.07-2.02,0-.33,0-.66-.01-.98,0-.32.03-.67-.06-.98-.02-.06-.07-.09-.12-.09h0Z"/>
        </g>
        <g>
          <path class="st0" d="M144.46,55.47c-2.09,0-4.15-.03-6.15-.08,4.92-.51,10.14-.88,15.94-1.13l.9-.04c2.48-.11,5.03-.22,7.55-.23h.54c1.46,0,2.66.03,3.79.08.49.02.99.03,1.49.04.63,0,1.27.02,1.9.06-.73.08-1.52.16-2.29.23-.54.05-1.08.1-1.62.17-1.38.17-2.78.28-4.1.37-2.45.17-4.94.25-7.36.33l-.89.03c-3.4.11-6.57.17-9.68.17h0Z"/>
          <path d="M163.24,54.24c1.29,0,2.38.02,3.39.07-.06,0-.12.01-.17.02-1.37.17-2.77.28-4.09.37-2.44.17-4.92.25-7.33.33l-.91.03c-3.4.11-6.57.17-9.67.17-.51,0-1.02,0-1.52,0,3.56-.29,7.31-.53,11.32-.7l.89-.04c2.48-.11,5.04-.22,7.55-.23h.55M163.24,53.74c-.18,0-.37,0-.55,0-2.82.01-5.64.15-8.45.27-5.7.25-11.38.63-17.05,1.24-.23.02-.2.34.02.35,2.42.07,4.83.11,7.25.11,3.23,0,6.46-.06,9.69-.17,2.75-.09,5.51-.17,8.26-.36,1.37-.09,2.75-.2,4.12-.37,1.48-.19,3.03-.24,4.48-.53.15-.03.21-.28.02-.3-1.31-.16-2.68-.1-4-.16-1.26-.06-2.52-.08-3.78-.08h0Z"/>
        </g>
        <g>
          <path class="st0" d="M176.31,54.2c-.75,0-1.5-.03-2.25-.06,1.1-.18,2.24-.36,3.37-.44h.11c.94-.08,1.91-.14,2.86-.14.64,0,1.22.03,1.76.1-1.49.36-3.06.44-4.59.51h-.1c-.39.02-.77.03-1.15.03Z"/>
          <path d="M180.4,53.3c-1,0-2.01.07-2.99.14-1.81.13-3.57.5-5.36.74-.09.01-.08.14,0,.14,1.42.02,2.83.12,4.24.12.39,0,.78,0,1.17-.03,1.73-.08,3.52-.16,5.2-.65.15-.04.14-.28-.02-.31-.74-.12-1.5-.16-2.25-.16h0Z"/>
        </g>
        <g>
          <path class="st0" d="M204.16,56.31s-.42-.07-.44-.07c.2-.05.4-.09.58-.09.14,0,.26.03.36.08-.09.1-.16.11-.24.11l-.26-.03Z"/>
          <path d="M204.31,55.9c-.33,0-.67.12-.98.18-.46.1-.92.18-1.37.32-.13.04-.08.21.04.21,0,0,.02,0,.03,0,.39-.09.79-.17,1.19-.17.05,0,.1,0,.15,0,.21.01.41.06.62.09.11.01.21.03.32.04.04,0,.08,0,.12,0,.11,0,.21-.02.32-.05.24-.08.25-.41.04-.53-.15-.08-.31-.11-.48-.11h0Z"/>
        </g>
        <g>
          <path class="st0" d="M61.58,87.38c-1.8,0-2.12-2.73-2.31-4.36-.03-.22-.05-.43-.07-.61l-.13-.93c-.37-2.61-.75-5.31-.99-7.97-.29-3.22-.5-6.19-.64-9.08v-.24s-.25,0-.25,0c-3.1,0-6.24-.07-9.28-.12-1.44-.03-2.89-.05-4.33-.07-.95-.01-1.91-.02-2.87-.02-2.86,0-5.82-.02-8.68-.34l-.5-.06h0s-.8-.12-.8-.12c.62-.02,1.24-.03,1.87-.03,1.84,0,3.72.09,5.54.17,1.82.08,3.71.17,5.56.17,3.95,0,8.23-.23,13.47-.71l.24-.02-.03-.8c-.03-.73-.06-1.46-.07-2.19v-.38s-.36.16-.36.16c-.35.17-.75.24-1.29.24-.26,0-.53-.02-.8-.03-.22-.01-.43-.03-.65-.03-.67-.02-1.33-.04-2-.06l-1.17-.04c-1.33-.04-2.66-.06-3.99-.09l-2.17-.04c-1.67-.04-3.34-.05-5.01-.06-2.51-.02-5.11-.03-7.67-.14,2.51-.16,5.11-.18,7.61-.2,1.67-.01,3.33-.02,5-.06.74-.02,1.49-.03,2.23-.04,1.37-.03,2.73-.05,4.1-.1h.34c.94-.04,1.88-.08,2.81-.1.21,0,.43-.02.64-.04.27-.02.53-.04.8-.04.5,0,.87.07,1.18.23l.37.18v-.41c-.02-1.19-.04-2.39-.03-3.59v-.5s.01,0,.01,0v-.74c.05-1.99.11-3.99.2-5.95v-.26s-.25,0-.25,0c-3-.01-6-.07-9-.12-1.4-.02-2.8-.05-4.21-.07-.96-.01-1.93-.02-2.9-.02-3.3,0-6.71-.02-9.97-.51.08,0,1.02-.03,1.02-.03.29,0,.58,0,.88,0,1.84,0,3.72.09,5.54.17,1.82.08,3.71.17,5.56.17,3.87,0,8.06-.22,13.18-.69l.22-.02v-.22c.17-2.93.39-6.02.67-9.18.06-.72.12-1.45.18-2.19.17-2.2.34-4.48.75-6.65.23-1.24.74-2.06,1.52-2.44.26-.13.54-.19.81-.19.41,0,.79.15,1.1.43l-.07.15.11.17c.97,1.04,1.15,3.24,1.27,4.7.02.3.05.57.07.81.18,1.68.32,3.37.41,5.03l.03.72c.03.64.05,1.31.13,1.96l.05.38c.04.32.08.64.1.96l.02.26.75-.07c.77-.08,1.54-.14,2.31-.18.15,0,.3-.02.47-.03.31-.02.65-.05.99-.05.9,0,1.48.2,1.8.63.13.17.21.41.23.71l.02.24h.38s2.14-.04,2.14-.04c1.43-.02,3.49-.04,6.08-.06,5.18-.05,12.5-.12,21.24-.19,17.48-.15,40.64-.35,63.75-.54,42.35-.35,84.54-.69,91.31-.75h.09s.07-.05.07-.05c.14-.11.32-.17.51-.17.11,0,.22.02.32.06.77.27,1.4,1.51,1.75,2.18l.08.15.17-.02c.16-.02.32-.02.47-.02h.29s3.29-.05,3.29-.05h.16c.3,0,.64,0,.98-.11.05-.01.1-.02.15-.02.09,0,.18.02.26.07l.11.06.11-.05c.1-.04.22-.07.34-.07.2,0,.38.07.49.18.1.1.15.24.14.4-.01.42-.03.85-.04,1.27l-.04,1.16h.26s.1,0,.1,0c.1.02.17.06.24.14l.06.07h.09c.3.05.6.11.9.17l7.19,1.36c1.14.21,2.32.43,3.06,1.33.24.29.42.62.54.97l.06.17h.18c.79.01,1.57.03,2.35.05,1.12.03,2.24.06,3.36.06.55,0,1.1,0,1.65-.02,1.5-.05,2.82-.12,4.02-.2.72-.05,1.45-.11,2.17-.18.18-.02.36-.05.55-.08.3-.05.61-.1.9-.1.21,0,.38.03.54.08.31.1.5.33.51.6v.08s.06.06.06.06c.34.42.55,1.11.63,2.06l.02.24h.24c.78-.05,1.56-.06,2.34-.06.84,0,1.67.01,2.51.03.84.01,1.67.03,2.51.03.8,0,1.57,0,2.34-.01.79,0,1.59-.01,2.38-.01,1.05,0,2.09,0,3.13.04,1.19.04,2.38.05,3.58.05,2.19,0,4.42-.05,6.58-.1,1.34-.03,2.68-.06,4.02-.08l5-.07c3.06-.04,6.12-.09,9.17-.12,4.21-.05,9.18-.13,14.17-.32,2.29-.09,4.61-.13,6.86-.16h.22c.55-.01,1.11-.04,1.69-.07.7-.03,1.42-.07,2.12-.07,1.19,0,2.12.1,2.94.32.05.01.07.07.07.1h-.01s-.12.07-.12.07l-.31.09.16.28c.07.11.05.29-.04.39-.24.26-.55.29-.94.32h-.15c-.44.05-.87.1-1.31.15-.61.07-1.21.15-1.82.23l-.78.1c-.89.12-1.78.26-2.67.4-.4.06-.8.14-1.2.21-.29.06-.58.08-.88.1h-.13s-.06.13-.06.13c-.02.03-.05.07-.14.08-.89.07-1.85.1-3.1.1-.56,0-1.11,0-1.67-.01-.56,0-1.11-.01-1.67-.01h-.48c-2.25.02-4.5.03-6.74.05-8.05.07-16.11.16-24.16.25-1.59.02-3.18.04-4.77.06-2.47.03-4.94.07-7.4.08l-6.18.03c-.46,0-.93.01-1.39.02-.54.01-1.08.03-1.62.03-.81,0-1.47-.03-2.08-.09l-.25-.03-.03.25c-.1.92-.28,1.8-.53,2.6-.04.12-.16.41-.46.42-2.59.15-5.24.21-7.79.27l-2.04.04c-.88.01-1.76.03-2.64.06-.3.01-.59.03-.89.04-.53.03-1.07.05-1.6.05-.14,0-.58-.01-.58-.01l-.07.14c-.86,1.73-3.26,2.48-4.62,2.77-1.46.31-2.92.55-4.28.75-.73.11-1.45.21-2.18.3l-.32.04c-.41.05-.84.11-1.25.11-.16,0-.32,0-.48-.03l-.29-.07-.04.29v.18c-.09,1.02-.43,1.75-1.01,2.17-.49.35-1.24.56-2.06.56-.71,0-1.4-.16-1.9-.43l-.24-.13-.11.25c-.19.42-.38.76-.58,1.03l-.08.1.04.12c.02.06.03.11.03.14,0,.28-.22.5-.5.51,0,0-65.35.53-87.66.72-59.3.49-92.02.78-97.25.85-.42,0-.68.01-.72.01-.06,0-.11,0-.17-.03l-.37-.11.05.39c.03.23-.01.37-.11.49-.14.15-.36.25-.59.25-.14,0-.28-.04-.37-.11l-.24-.18-.14.26c-.04.08-.1.14-.18.18-1.51.7-3.06,1.07-4.47,1.07-.44,0-.86-.04-1.27-.11l-.27-.05-.02.28c-.24,3.46-.51,6.37-.88,9.16-.06.45-.1.92-.14,1.39-.09,1.03-.18,2.1-.49,3.06-.36,1.13-.91,1.7-1.65,1.76-.06,0-.11,0-.16,0ZM61.26,26.27c-1.15.3-1.68,2.09-1.81,3.1-.16,1.24-.27,2.48-.39,3.73l-.04.47c-.31,3.32-.52,6.08-.68,8.69-.09,1.55-.17,3.11-.24,4.67v.08s.04.07.04.07c.14.23.13.57-.02.76l-.05.06v.08c-.38,9.32-.21,17.5.51,25l.04.44c.22,2.33.45,4.74.8,7.09l.05.36c.33,2.67.87,5.73,2.2,5.73.21,0,.43-.08.64-.24.77-.57.9-1.94.99-2.93.02-.22.04-.42.06-.58.17-1.22.3-2.54.39-4.05.15-2.42.28-4.79.29-7.18v-.17s-.15-.06-.15-.06c-.43-.18-.81-.39-1.16-.64-2-1.45-2.07-3.91-2.14-6.29-.09-3.24-.05-6.42.02-9.37.07-3.45.25-6.47.52-9.25.17-1.72.96-3.62,2.33-4.01l.18-.05v-.19c0-.34.04-.7.08-1.04.02-.2.05-.4.06-.6.06-.75.03-1.48,0-2.19-.05-1.41-.14-2.87-.26-4.35l-.02-.22c-.1-1.3-.21-2.64-.41-3.94-.15-.97-.47-2.18-1.63-2.95l-.1-.08-.11.04ZM64.58,70.3c.12,0,.22.03.3.09l.05.04h.06c.43.09.89.13,1.41.13.91,0,1.85-.12,2.75-.23.58-.07,1.15-.15,1.69-.18l.37.08.04-.36c-.23-1.2-.32-2.43-.41-3.63-.04-.47-.07-.94-.11-1.41-.05-.59-.25-2.93-.3-3.51.14.55.74,2.8.89,3.38.13.49.26.98.4,1.47.23.81.46,1.65.64,2.49l.08.38.31-.24c.09-.07.18-.11.27-.11.06,0,1.07-.02,1.07-.02l7.37-.08c5.18-.05,12.5-.12,21.24-.19,17.48-.15,40.64-.35,63.75-.54l23.25-.19.06-.04c.92-.61,1.53-1.82,2.02-2.79.14-.27.27-.53.39-.75.85-1.49,2-2.37,3.53-2.68.43-.09.88-.13,1.37-.13,1.02,0,2.07.19,3.08.37,1.03.18,2.09.38,3.13.38s1.87-.18,2.67-.54c.09-.04.18-.06.26-.06l.29.04.08-.29-.11-6.54-.27.03c-.12.01-.25.02-.39.02,0,0-1.45,0-1.79,0-.75-.01-1.5-.04-2.25-.08-.45-.02-.9-.04-1.35-.05-2.67-.09-4.87-.13-6.94-.13h-.27c-.07,0-.08-.06-.08-.09,2.19-.13,4.47-.25,7.23-.44.45-.03.9-.07,1.35-.1.74-.06,1.48-.12,2.23-.16.42-.02.84-.04,1.25-.05l.77-.02c.08,0,.16,0,.23,0l.27.02-.02-.85c-.06-2.19-.12-4.46-.04-6.66v-.27s-.26.01-.26.01c-.28.01-.56.02-.83.02-.53,0-1.08.01-1.63.1-1.06.16-2.11.55-3.22,1.17-.54.3-1.07.71-1.59,1.1-1.04.78-2.11,1.59-3.3,1.71-.1,0-.19.01-.28.01-1.31,0-2.45-.93-3.5-2.85-.43-.78-.94-1.59-1.78-2.27-.32-.26-.66-.46-.99-.65-.52-.3-1-.58-1.37-1.06-.02-.03-.04-.06-.05-.11l-.06-.17-18.12.15c-40.73.34-90.66.76-97.25.85-.41,0-.72.01-.72.01-.04,0-.08,0-.13-.02l-.25-.06-.07.24-.06.26c-.09.38-.17.76-.27,1.14-.13.48-.27.94-.42,1.42-.09.29-.18.57-.26.86-.1.35-.21.7-.33,1.05,0,.02-.01.03-.02.05.03-.15.16-.79.16-.79.06-.3.11-.61.17-.91.06-.37.13-.74.2-1.1.13-.62.29-1.24.44-1.85,0,0,.08-.32.11-.42.07-.25.15-.5.17-.76.03-.39-.15-.55-.42-.66-.22-.09-.49-.13-.85-.13-.15,0-.31,0-.45.02-.67.04-1.35.09-2.02.14l-2.67.2c-.14.05-.2.06-.27.06-.06,0-.11-.01-.17-.03-.19-.01-.3-.02-.42-.02h-.07s-.06.03-.06.03c-1.29.68-1.61,2.23-1.73,3.35-.16,1.43-.23,2.89-.31,4.3l-.03.62c-.21,3.81-.3,6.75-.3,9.55,0,1.59,0,3.19.04,4.78.03,1.33.08,2.99,1.29,4.13.55.51,1.18.86,1.92,1.08h.05s.15,0,.15,0ZM196.48,61.87c-.31,0-.61.03-.91.08-1.8.31-2.48,1.74-3.13,3.12-.26.54-.52,1.11-.85,1.58-.14.2-.3.39-.46.56l-.39.42,16.38-.13-.17-.36c-.28-.58-.29-1.32-.3-2.03l-.04-2.31-.36.19c-.7.36-1.5.54-2.38.54s-1.76-.17-2.74-.49c-.27-.09-.55-.19-.83-.29-1.23-.44-2.5-.89-3.83-.89ZM215.09,66c-.04.31-.31.64-.85.99l-.72.46h1.81s-.18-.37-.18-.37c.39.07.77.14,1.12.14,1.89,0,2.88-2.02,3.02-4.03.16-2.37.23-4.87.2-7.43-.02-1.91-.03-3.82-.04-5.73v-1.93c-.02-1.18-.02-2.39-.47-3.53-.37-.94-.98-1.41-1.63-1.91l-.16-.12-2.62.02.05.29c.05.32.05.66.05,1,0,.18,0,.36,0,.54l.09,2.02c.07,1.5.12,2.74.07,4.03-.02.51-.06,1.01-.11,1.51-.05.53-.1,1.06-.11,1.61-.07-.54-.18-1.08-.29-1.6-.1-.48-.2-.97-.27-1.46-.2-1.37-.29-2.79-.37-4.16l-.11-1.87c-.01-.17-.03-.34-.05-.52-.04-.37-.08-.76-.05-1.11l.02-.27-4.37.04-.06.04c-.12.08-.23.15-.34.22-.56.35-1.09.69-1.36,1.56-.28.9-.23,1.85-.19,2.77l.02.58.19,6.53c.05,1.61.09,3.23.12,4.84l.13,5.23v.17c-.01.96.03,1.9.38,2.25.1.1.22.16.36.16.1,0,.21-.03.32-.1.08-.04.16-.07.24-.07s.18.02.26.07l.09.05.1-.03c.67.35,1.39.53,2.13.53.32,0,.64-.03.95-.1.53-.12,1.03-.31,1.46-.57.15-.09.29-.2.43-.3.24-.19.48-.36.74-.44ZM218.3,42.53l.39.42c.21.23.41.48.56.72.7,1.12.82,2.49.86,3.8.04,1.8.04,3.6.04,5.41,0,1.49,0,2.98.02,4.46.01.85.07,1.69.12,2.54.06.84.11,1.68.12,2.53.02,1.15-.05,2.61-.72,3.78-.15.26-.39.53-.69.79l-.53.45,31.64-.26.06-.16c.61-1.67,1.02-3.42,1.42-5.21.39-1.75.52-3.56.39-5.52,0-.05,0-.09.04-.12.03-.03.08-.05.14-.05.06,0,.17.02.18.16.18,1.87.2,3.81.08,5.76-.09,1.46-.42,2.98-1.04,4.8l-.11.33,3.16-.03.06-.16c.05-.13.1-.27.16-.39l.17-.32c.12-.22.24-.44.34-.68.14-.34.27-.68.37-1.03.04-.14.07-.27.1-.41.05-.22.1-.43.18-.64l.1.08c.06.34,0,.7-.08,1.09-.08.4-.19.75-.33,1.08-.16.37-.33.69-.51.97l-.24.39.43.03,2.88-.02.05-.19c.12-.46.36-.94.59-1.4.16-.32.32-.63.44-.93.41-1.06.74-2.15.99-3.22.5-2.21.66-4.54.47-6.93-.18-2.28-.69-4.55-1.52-6.75-.41-1.08-.88-2.09-1.4-3.01-.17-.3-.4-.61-.64-.93-.33-.45-.67-.91-.87-1.37l-.07-.15-1.87.02.15.34c.07.15.12.31.18.48.22.63.43,1.26.62,1.89.33,1.11.62,2.3.88,3.64.47,2.42.48,4.93.49,7.36v.35c0,.06-.01.1-.05.14-.04.04-.1.06-.16.06-.1,0-.16-.05-.16-.15-.13-2.49-.72-4.92-1.29-7.28l-.03-.11c-.27-1.13-.6-2.29-1-3.53-.19-.6-.4-1.2-.62-1.79l-.05-.13c-.13-.35-.25-.68-.27-1.01v-.24s-3.63.03-3.63.03l.33.4c.32.39.61.84.81,1.18.5.82.91,1.71,1.23,2.63.83,2.41.98,4.37.46,5.81-.02.07-.05.08-.1.08-.1,0-.24-.09-.25-.19-.07-.52-.08-1.05-.09-1.57,0-.41-.01-.83-.05-1.24-.08-.93-.26-1.86-.55-2.76-.29-.94-.68-1.83-1.16-2.66-.15-.26-.32-.52-.49-.77l-.24-.37c-.07-.11-.13-.22-.2-.33l-.07-.13-.19-.07-30.48.25ZM260.5,65.59c.29,0,.59.03.89.05.31.03.62.06.92.06.81,0,1.78-.18,2.17-1.58.24-.88.26-1.83.28-2.75,0-.22,0-.45.02-.66.04-1.11.07-2.22.1-3.33.1-4.12-.06-8.18-.33-13.02v-.18s-.19-.05-.19-.05c-.36-.09-.71-.11-1.04-.11h-3.67s-.41,0-.41,0l.18.36c.53,1.03.96,1.98,1.29,2.91.81,2.25,1.28,4.66,1.38,7.17.1,2.49-.16,4.97-.78,7.4-.3,1.17-.67,2.29-1.1,3.31l-.15.35.35.07h.08ZM265.76,47.4c-.15,4.41-.36,8.85-.53,12.67-.02.52-.04,1.05-.05,1.58l-.04,1.34.35-.13c.44-.16.94-.23,1.42-.29l.46-.06c.61-.1,1.23-.2,1.84-.3,1.42-.24,2.66-.47,3.8-.71,1.12-.24,2.3-.52,3.31-1.18.9-.59,1.52-1.31,2.01-2.34.06-.14.21-.15.27-.15.1,0,.19.03.25.09.04.04.06.1.06.16,0,.14-.01.27-.03.39l-.04.31.31-.03c.59-.06,1.19-.08,1.78-.11.3-.01.6-.03.9-.04.84-.05,1.68-.11,2.52-.17.51-.04,1.02-.08,1.52-.11,2.39-.16,5.1-.34,7.73-.44h.18s.05-.18.05-.18c.33-1.15.48-2.22.46-3.28-.02-.67-.08-1.32-.2-1.91-.03-.18-.08-.35-.12-.52-.04-.13-.07-.27-.1-.4l-.05-.22-.23.03c-.14.02-.27.02-.41.02-.18,0-.37-.01-.55-.02-.16,0-.33-.02-.49-.02,0,0-1.78-.01-2.17-.02-1.26-.02-2.73-.05-4.18-.12l-1.42-.07c-1.87-.08-3.8-.17-5.68-.39l-.3-.03.02.3c.02.34-.01.67-.09.98-.02.09-.1.13-.16.13-.05,0-.08-.02-.11-.06-.26-.38-.44-.74-.62-1.25-.14-.39-.35-.87-.73-1.21-.48-.43-1.13-.56-1.7-.68l-7.82-1.63c-.26-.05-.52-.1-.77-.18l-.08-.02-.08.03s-.09.02-.14.02h-.24l-.08.24ZM295.26,53.49c0,.3,0,.58,0,.82,0,.18-.01.35-.02.53l-.02.44.3-.04c.82-.1,1.72-.15,2.92-.15.48,0,.96,0,1.44.01.47,0,.95.01,1.41.01l1.99-.02c1.75-.02,3.5-.05,5.25-.05,7.99-.04,15.99-.09,23.98-.15l12.17-.1c1.74-.01,3.47-.03,5.2-.05h.79c.6-.02,1.21-.03,1.81-.05.79-.02,1.59-.04,2.38-.04.6,0,1.19.01,1.78.05.04,0,.08.02.12.05l.12.09.13-.06c.28-.13.56-.26.85-.34.33-.1,1.33-.39,1.33-.39.63-.18,1.31-.35,2.2-.55l2.41-.54-4.58.08c-1.16.02-2.32.03-3.49.03-1.45,0-2.9-.01-4.35-.04-2.07-.03-4.14-.04-6.22-.04-3.72,0-7.44.04-11.16.08-3.72.04-7.43.08-11.15.08h-.1c-3.05,0-6.1.02-9.15.04l-4.95.03h-2.95c-1.44.01-2.88.02-4.32.03-.58,0-1.17.01-1.76.02-.75.01-1.5.03-2.24.03-.63,0-1.26,0-1.89-.04h-.27s0,.26,0,.26ZM190.34,42.76l.54.44c.62.5,1.23,1.18,1.67,1.85.19.29.37.7.55,1.14.5,1.15,1.07,2.46,2.24,2.46.29,0,.6-.09.92-.25.5-.26.95-.6,1.39-.93.35-.26.71-.53,1.08-.75.84-.5,1.75-.86,2.62-1.06l.31-.07c1.08-.25,2.3-.52,3.46-.52.38,0,.74.03,1.06.09l.25.05.04-.25c.13-.8.41-1.42.83-1.92l.36-.42-17.34.14ZM29.33,71.17c-.13,0-.3-.04-.4-.22-2.37-4.5-2.1-10.35-1.9-14.63.26-5.51.73-11.34,3.34-16.69.05-.1.12-.14.21-.14.13,0,.26.09.32.21,1.04,2.26,1.37,4.63.98,7.07l-.07.05-.05-.03c.06-2.03-.26-3.99-.95-5.84l-.21-.55-.25.53c-2.05,4.27-2.3,9.16-2.54,13.88l-.07,1.41c-.12,2.18-.23,4.71,0,7.22.17,1.89.66,3.71,1.48,5.56l.22.49.23-.48c.72-1.48,1.15-3.05,1.26-4.65.01-.18.07-.31.18-.41l.39-.34.29.43c.07.11.1.23.09.37-.22,2.24-.89,4.41-2,6.46-.1.18-.33.31-.55.31ZM55.66,55.13c-.24,0-.49-.02-.73-.03-.15,0-.3-.02-.45-.02-.61-.02-1.21-.06-1.82-.09l-.43-.02c-1.34-.07-2.79-.14-4.26-.14h-.69c-.89,0-1.77.01-2.65.01-1.66,0-3.86-.02-6.07-.15,2.85-.15,5.78-.18,8.61-.21h.49c1.61-.02,3.26-.13,4.67-.23l.22-.02c.61-.04,1.23-.09,1.84-.12.16,0,.32-.02.49-.04.28-.02.57-.05.86-.05.33,0,.6.04.83.11.1.03.19.1.26.19l.23.31-.23.24c-.06.06-.12.1-.19.12-.27.09-.58.13-.97.13Z"/>
          <path d="M61.91,26.32c.12.04.23.1.34.18l-.04.09c-.09-.09-.19-.18-.3-.27M59.82,27.29c-.17.33-.3.67-.39.99.1-.38.23-.71.39-.99M59.12,30.05c-.12,1.01-.21,2.03-.3,3.02l-.04.47c-.31,3.32-.52,6.08-.68,8.69-.08,1.41-.16,2.94-.24,4.67v.16s.08.13.08.13c.09.14.08.36,0,.47l-.11.13v.17c-.38,9.33-.21,17.52.51,25.03l.04.47c.18,1.91.37,3.88.62,5.82-.26-1.92-.51-3.86-.69-5.78-.29-3.22-.5-6.18-.64-9.07l-.02-.47h-.48c-2.45,0-4.92-.05-7.35-.09,2.25-.12,4.67-.3,7.34-.54l.47-.04-.02-.47-.02-.57c-.03-.73-.06-1.46-.07-2.18v-.24s0,0,0,0v-.82c-.03-1.12-.04-2.22-.04-3.33h0s.02-1.48.02-1.48c.03-1.98.1-3.97.19-5.94l.02-.52h-.52c-2.31-.01-4.65-.05-6.94-.09,2.17-.11,4.49-.29,7.06-.52l.43-.04.02-.43c.15-2.92.37-6.01.65-9.17.06-.72.12-1.45.18-2.18.13-1.73.27-3.51.52-5.24M63.76,33.09c.14,1.4.25,2.81.32,4.2.01.24.02.48.03.72.03.65.05,1.32.13,1.98l.05.39c.04.31.08.63.1.94l.03.52.52-.05.17-.02.32-.03c.81-.09,1.56-.15,2.3-.18.15,0,.31-.02.47-.03.32-.02.64-.05.97-.05.82,0,1.33.17,1.6.53.04.05.08.12.1.19-.1-.09-.22-.15-.32-.19-.25-.1-.55-.15-.94-.15-.16,0-.32,0-.46.02-.67.04-1.35.09-2.02.14-.33.03-.65.05-.98.07-.34.02-.69.05-1.08.08-.21.02-.41.03-.61.05h-.09s-.08.05-.08.05c-.02,0-.04.01-.07.01-.03,0-.06,0-.09-.02l-.08-.03h-.08c-.1,0-.21,0-.31,0h-.14s-.13.06-.13.06c-1.4.74-1.73,2.37-1.86,3.54-.16,1.44-.24,2.9-.31,4.32l-.03.61c-.21,3.82-.3,6.77-.3,9.57,0,1.69,0,3.22.04,4.78.03,1.38.08,3.09,1.37,4.3.58.54,1.24.91,2.03,1.14l.1.03.11-.02s.04,0,.06,0c.07,0,.12.02.14.04l.1.08.12.02c.45.08.92.12,1.45.12.93,0,1.87-.12,2.78-.24.59-.07,1.14-.15,1.67-.18.02,0,.03,0,.05,0h.05s-.05.11-.05.11c-.02.04-.05.06-.07.06-1.48.69-2.99,1.05-4.37,1.05-.42,0-.84-.03-1.23-.1l-.55-.1-.04.55c-.21,3.03-.45,5.63-.74,8.1.03-.41.06-.83.09-1.27.15-2.42.28-4.79.29-7.2v-.33s-.31-.13-.31-.13c-.41-.17-.78-.37-1.11-.62-1.9-1.37-1.97-3.77-2.03-6.13-.09-3.2-.05-6.38.02-9.33.07-3.44.24-6.46.52-9.23.12-1.22.71-3.39,2.15-3.79l.37-.1v-.38c0-.32.04-.67.08-1.01.02-.21.05-.41.07-.61.06-.76.03-1.5,0-2.22-.05-1.41-.14-2.87-.26-4.36l-.02-.23s0-.05,0-.08M30.59,39.73s.02,0,.04.01l-.51,1.06c-.08.16-.15.33-.23.49.21-.52.44-1.05.69-1.56M30.63,39.74s.04.03.05.05c.45.98.77,1.98.95,3-.15-.66-.35-1.31-.58-1.95l-.41-1.1M256.77,41.25c.08,0,.16.01.24.04.68.24,1.28,1.42,1.61,2.06l.16.3.34-.03c.15-.02.3-.02.45-.02h.07s.07,0,.07,0h.15s.74-.01.74-.01h.73s.76-.03.76-.03h.76s.14-.01.14-.01h.16s.16,0,.16,0c.32,0,.68,0,1.05-.12.03,0,.05-.01.08-.01.05,0,.1.01.14.04l.21.12.22-.09c.07-.03.16-.05.24-.05.13,0,.25.04.31.11.02.02.07.08.07.22-.01.41-.03.82-.04,1.24-.01.31-.02.62-.03.93v.52s.5,0,.5,0c.02,0,.05,0,.08,0,.03,0,.05.02.08.06l.12.13.18.02c.29.03.59.09.88.15.12.03.25.05.37.07l2.19.41c1.46.27,2.92.55,4.38.83l.26.05c1.15.21,2.23.42,2.91,1.25.22.27.39.57.5.89l.11.33h0s.02.41.02.41c.01.24,0,.47-.04.69-.18-.3-.32-.6-.47-1-.15-.41-.38-.93-.8-1.31-.53-.47-1.21-.61-1.81-.74l-.13-.03c-.4-.09-.81-.17-1.21-.25l-.59-.12c-1.03-.21-2.05-.43-3.08-.64l-.77-.16-1.51-.32-.28-.06-.26-.05c-.25-.05-.5-.1-.75-.17l-.16-.04-.15.06s-.02,0-.06,0h-.03s-.52-.04-.52-.04l-.02.52c-.11,3.22-.25,6.47-.39,9.48.07-3.96-.08-7.89-.34-12.53l-.02-.36-.35-.09c-.38-.1-.76-.12-1.1-.12h-.24s-.27,0-.27,0h-.73s-.73,0-.73,0h-1.49s-.21,0-.21,0h-.81s.37.73.37.73c.53,1.02.95,1.96,1.28,2.88.81,2.23,1.26,4.62,1.36,7.09.1,2.46-.16,4.93-.77,7.33-.29,1.16-.66,2.26-1.09,3.27l-.02.05h0s.45.23.45.23l-.46-.19-.3.71h0s-.1.23-.1.23c-.18.41-.36.73-.56.98l-.15.22.07.24s.01.04.02.05c0,.14-.11.25-.25.26-.02,0-.69,0-1.94.02l-2.98.02-2.5.02-19.67.16c-16.34.13-38.25.31-60.57.5-40.72.34-90.64.76-97.25.85-.42,0-.68.01-.73.01-.02,0-.05,0-.08-.02l-.44-.13.38-.29c.08-.06.12-.06.13-.06.05,0,.09,0,.22,0h.46s1.67-.03,1.67-.03c1.43-.02,3.49-.04,6.08-.06,5.18-.05,12.5-.12,21.24-.19,17.48-.15,40.64-.35,63.75-.54l23.17-.19h.15s.12-.08.12-.08c.97-.65,1.6-1.89,2.11-2.88.14-.27.26-.52.39-.74.43-.76.94-1.35,1.54-1.78-.81.66-1.28,1.64-1.7,2.55-.26.56-.51,1.09-.83,1.55-.12.17-.26.34-.44.54l-.79.85h1.16s15.41-.14,15.41-.14h.79s-.35-.72-.35-.72c-.26-.53-.27-1.24-.27-1.92v-.28s-.02-1.03-.02-1.03v-.6s-.02-.81-.02-.81l-.72.37c-.66.34-1.42.52-2.26.52s-1.71-.16-2.66-.48c-.27-.09-.55-.19-.83-.29-1.25-.44-2.54-.9-3.91-.9-.32,0-.64.03-.95.08-.08.01-.15.03-.22.04.14-.04.28-.08.43-.11.41-.08.84-.13,1.32-.13.99,0,2.03.19,3.04.37,1.04.19,2.11.38,3.18.38s1.94-.18,2.78-.56c.06-.03.11-.04.16-.04.02,0,.03,0,.05,0l.58.09v-.59s-.02-.38-.02-.38c-.03-1.82-.06-3.64-.09-5.46v-.24s0-.19,0-.19v-.54s-.55.06-.55.06c-.11.01-.23.01-.37.01h-.43s-.37,0-.37,0c-.33,0-.66,0-.98,0-.75-.01-1.51-.04-2.25-.08-.45-.02-.9-.04-1.35-.05-.6-.02-1.17-.04-1.72-.05.54-.03,1.09-.07,1.67-.11.45-.03.91-.07,1.36-.1.74-.06,1.48-.12,2.21-.16.42-.02.85-.04,1.28-.05l.51-.02c.08,0,.15,0,.22,0s.14,0,.21,0l.54.03v-.54s-.03-.61-.03-.61c-.06-2.18-.12-4.43-.04-6.62l.02-.55-.55.03c-.27.01-.55.02-.83.02-.54,0-1.1.01-1.66.1-1.09.17-2.17.56-3.31,1.2-.55.31-1.09.72-1.62,1.12-1.01.76-2.05,1.55-3.17,1.66-.09,0-.17.01-.26.01-1.21,0-2.28-.89-3.28-2.72-.42-.76-.96-1.64-1.84-2.34-.34-.27-.69-.47-1.02-.67-.49-.29-.96-.56-1.31-1.03l-.11-.35h-.37s-17.94.15-17.94.15c-40.72.34-90.65.76-97.25.85-.42,0-.68.01-.72.01-.02,0-.04,0-.08-.02l-.31-.07c.04-.13.07-.27.09-.41h.35s.14-.01.14-.01h.46s1.67-.03,1.67-.03c1.43-.02,3.49-.04,6.08-.06,5.18-.05,12.5-.12,21.24-.19,17.48-.15,40.64-.35,63.75-.54,42.35-.35,84.54-.69,91.31-.75h.17s.14-.11.14-.11c.09-.07.22-.12.36-.12M256.32,54.75c-.24-1.96-.71-3.88-1.16-5.75l-.03-.12c-.27-1.13-.61-2.32-1-3.55-.19-.6-.4-1.21-.63-1.8l-.05-.13c-.12-.33-.24-.64-.26-.93l-.03-.48h-.48s-1.34.01-1.34.01h-1.51s-1.05.02-1.05.02h0s0,0,0,0l-18.83.15-7.54.06-3.54.03h-1.14s.78.84.78.84c.2.21.38.45.53.68.67,1.07.79,2.4.82,3.68.04,1.8.04,3.63.04,5.4,0,1.46,0,2.98.02,4.47.01.86.07,1.72.12,2.56.05.82.11,1.67.12,2.51.02,1.11-.04,2.54-.69,3.65-.14.24-.36.48-.63.72l-1.06.89h1.38s30.78-.26,30.78-.26h.35s.12-.33.12-.33c.62-1.68,1.01-3.37,1.43-5.24.21-.92.34-1.86.4-2.82.02.98,0,1.98-.07,2.97-.09,1.44-.42,2.94-1.03,4.74l-.23.67h.7s1.69-.02,1.69-.02h.91s0,0,0,0h.96s2.69-.03,2.69-.03h.38s.1-.38.1-.38c.11-.43.35-.9.57-1.34.16-.32.33-.64.45-.96.41-1.07.75-2.17,1-3.26.51-2.23.67-4.58.48-7-.18-2.31-.7-4.6-1.53-6.81-.41-1.09-.89-2.11-1.42-3.04-.18-.32-.41-.63-.65-.96-.32-.43-.65-.88-.84-1.32l-.13-.31h-.33s-.14,0-.14,0h-.7s-.48,0-.48,0h-.75s.29.7.29.7c.06.15.12.3.18.46.22.62.43,1.25.62,1.88.33,1.1.62,2.29.87,3.61.39,2,.46,4.07.48,6.11M214.5,51.61c-.08-.38-.15-.77-.21-1.15-.2-1.35-.28-2.76-.37-4.14l-.11-1.86c-.01-.17-.03-.35-.05-.53-.04-.36-.07-.73-.04-1.06l.05-.55h-.55s-1.36.02-1.36.02l-2.66.02h-.15s-.13.09-.13.09c-.11.08-.23.15-.33.22-.57.36-1.17.74-1.47,1.7-.29.94-.25,1.91-.2,2.86,0,.19.02.38.02.57l.07,2.43.12,4.09c.05,1.58.08,3.16.12,4.74l.05,1.97.03,1.11.06,2.24s0,.09,0,.16c-.01,1.17.06,2.03.45,2.43.15.15.33.23.54.23.15,0,.3-.04.45-.13.04-.02.07-.03.11-.03.04,0,.09.01.13.04l.19.11.12-.04c.64.34,1.38.52,2.14.52.34,0,.67-.04,1-.11.24-.05.48-.12.71-.21l-.57.37h1.72s.15-.02.15-.02h.4s.79-.04.79-.04l-.14-.26c.23.05.46.08.68.08,2.06,0,3.12-2.14,3.27-4.26.16-2.38.23-4.88.2-7.45-.02-1.97-.03-3.94-.04-5.91v-1.64s0-.11,0-.11c0-1.2-.01-2.44-.47-3.61-.39-1-1.03-1.5-1.71-2.02l-.09-.07-.14-.11h-.17s-1.27.01-1.27.01h-.97s-.58.01-.58.01l.09.58c.05.3.05.63.05.96,0,.19,0,.37,0,.55l.06,1.37.03.65c.06,1.24.12,2.64.07,4.01-.01.39-.05.79-.08,1.18M195.35,48.9c.33,0,.68-.1,1.04-.28.52-.27.98-.61,1.43-.95.36-.27.7-.52,1.06-.74.82-.48,1.7-.84,2.55-1.03l.31-.07c1.07-.24,2.28-.52,3.41-.52.36,0,.7.03,1.01.09l.5.09.08-.5c.13-.75.38-1.34.78-1.79l.72-.84h-1.11s-16.09.14-16.09.14h-1.4s1.09.89,1.09.89c.6.49,1.19,1.14,1.62,1.79.18.27.35.68.54,1.1.5,1.16,1.13,2.61,2.47,2.61M250.58,44.57c.34.64.64,1.31.88,2,.75,2.17.94,3.96.57,5.31-.04-.41-.05-.83-.05-1.27,0-.41-.01-.84-.05-1.26-.08-.94-.27-1.89-.56-2.82-.21-.68-.48-1.34-.79-1.97M28.35,46.45c-.51,2.73-.65,5.56-.79,8.33-.02.47-.05.94-.07,1.41-.12,2.19-.23,4.73,0,7.26.17,1.92.66,3.77,1.5,5.64l.44.97.47-.96c.74-1.51,1.17-3.11,1.29-4.74,0-.11.04-.19.09-.23l.18-.15.13.2s.06.1.05.2c-.21,2.2-.87,4.34-1.97,6.36-.05.1-.2.18-.33.18-.13,0-.16-.06-.18-.09-2.34-4.44-2.07-10.25-1.87-14.5.15-3.24.38-6.58,1.07-9.87M293.48,50.16c.18,0,.33.02.46.07.21.07.33.21.34.38v.16s.11.13.11.13c.31.38.5,1.03.58,1.92l.02.31v.38c.02.29.02.57.02.81,0,.18-.01.36-.02.53v.13s-.03.39-.03.39l-.05.42c-.1.9-.28,1.76-.52,2.55-.03.11-.1.24-.24.25-2.59.15-5.22.21-7.78.27h-.47c-.51.02-1.03.03-1.54.04-.89.02-1.78.03-2.68.06-.3.01-.6.03-.91.04-.52.03-1.06.05-1.59.05-.13,0-.27,0-.4,0h-.24s.6-.07.6-.07c.58-.06,1.19-.08,1.77-.11.3-.01.6-.03.9-.04.85-.05,1.69-.11,2.53-.17.51-.04,1.01-.07,1.52-.11,2.51-.17,5.1-.34,7.72-.44h.36s.1-.36.1-.36c.34-1.17.49-2.27.46-3.35-.02-.69-.09-1.34-.2-1.95-.04-.18-.08-.36-.13-.54-.03-.13-.07-.26-.1-.39l-.1-.45-.45.06c-.13.02-.25.02-.38.02-.18,0-.36-.01-.54-.02-.17,0-.33-.02-.5-.02-.33,0-.67,0-1,0-.39,0-.78,0-1.17-.01-1.27-.02-2.74-.05-4.17-.12-.47-.02-.95-.04-1.42-.07-1.31-.06-2.66-.12-3.99-.22.15,0,.31,0,.46.01,1.1.03,2.24.06,3.37.06.55,0,1.11,0,1.66-.03,1.53-.05,2.81-.11,4.03-.2.77-.06,1.46-.11,2.17-.19.18-.02.37-.05.57-.08.3-.05.59-.1.86-.1M364.1,52.37c.87,0,1.6.06,2.25.17h-.04s.31.56.31.56c.01.02,0,.07,0,.09-.17.18-.37.21-.78.24h-.15c-.44.05-.88.1-1.31.15-.61.07-1.22.15-1.83.23l-.77.1c-.86.11-1.73.25-2.56.38l.08-.02c.62-.18,1.3-.35,2.18-.55l4.81-1.07-4.93.08h-.67s-1.45.04-1.45.04c-1.16.02-2.31.03-3.46.03-1.38,0-2.81-.01-4.36-.04-.28,0-.56,0-.84-.01.88-.03,1.77-.06,2.65-.09,2.27-.09,4.58-.12,6.81-.16h.26c.55-.01,1.12-.04,1.7-.07.69-.03,1.41-.07,2.11-.07M55.73,54.27c.3,0,.55.03.75.1.05.02.1.05.13.1l.11.14-.09.09s-.06.05-.08.06c-.24.08-.53.12-.89.12-.24,0-.48-.02-.72-.03-.15,0-.31-.02-.46-.03-.62-.02-1.23-.06-1.85-.09l-.4-.02c-.6-.03-1.22-.06-1.85-.09.68-.04,1.34-.08,1.95-.13l.28-.02c.59-.04,1.18-.08,1.77-.12.16,0,.33-.02.5-.04.28-.02.56-.05.83-.05M354.87,54.9c.21,0,.41,0,.6,0-.55.02-1.16.03-1.86.03-.23,0-.46,0-.69,0,.65-.02,1.3-.03,1.95-.03M313.85,55.28c-2.38.03-4.76.07-7.13.08l-6.18.03c-.46,0-.93.01-1.4.02-.54.01-1.07.03-1.61.03-.41,0-.78,0-1.13-.02.59-.04,1.25-.06,2.05-.06.48,0,.96,0,1.43.01.47,0,.95.01,1.41.01.17,0,.34,0,.5,0l1.52-.02c1.74-.02,3.48-.05,5.21-.05,1.71,0,3.49-.02,5.32-.03M278.58,58.06s.05,0,.06,0c0,0,0,0,0,0,0,.12-.01.24-.03.36l-.08.62h-.05s-.14.28-.14.28c-.82,1.64-3.14,2.36-4.45,2.64-1.43.31-2.9.54-4.26.75-.72.11-1.45.21-2.17.3l-.32.04c-.42.05-.82.11-1.21.11-.14,0-.27,0-.41-.02h-.01s-.04-.01-.04-.01h-.01s.11-.04.11-.04c.42-.15.88-.22,1.37-.28.15-.02.31-.04.46-.07.62-.1,1.23-.2,1.85-.3,1.4-.23,2.65-.47,3.81-.71,1.14-.24,2.35-.53,3.39-1.22.94-.61,1.59-1.37,2.14-2.45M55.73,59.24c.46,0,.8.06,1.07.2l.18.09-.16.07c-.31.15-.68.21-1.18.21-.26,0-.52-.02-.78-.03-.22-.01-.44-.03-.66-.03-.66-.02-1.32-.04-1.98-.06l-1.19-.04c-1.32-.04-2.63-.06-3.95-.09-.49,0-.97-.02-1.46-.03.47,0,.93-.02,1.4-.03,1.37-.03,2.75-.05,4.12-.1h.4c.92-.05,1.84-.08,2.75-.1.21,0,.43-.02.66-.04.26-.02.52-.04.78-.04M264.86,63.53v.05s0,.11,0,.11v.07c-.08.94-.38,1.61-.9,1.98-.45.32-1.15.51-1.92.51-.67,0-1.31-.15-1.78-.4h-.01s.18,0,.18,0h.07c.27,0,.56.02.86.05.31.03.63.06.95.06.83,0,1.97-.18,2.41-1.77.06-.21.1-.43.14-.65M70.91,64.18c.05.19.1.38.15.56.13.49.26.98.4,1.48.23.81.46,1.65.64,2.47l.13.62.08.64v.06c.02.09,0,.16-.05.22-.09.1-.25.16-.4.16-.09,0-.17-.02-.22-.06l-.06-.04-.09-.48c-.23-1.18-.32-2.42-.41-3.61-.03-.47-.07-.94-.11-1.41-.02-.2-.04-.41-.05-.61M59.49,82.78c.39,2.27.98,4.06,2.17,4.06.27,0,.53-.1.79-.29.27-.2.47-.48.62-.8-.32.87-.77,1.32-1.36,1.37-.05,0-.1,0-.14,0-1.46,0-1.83-2.13-2.06-4.13,0-.07-.02-.14-.02-.21M63.6,82.92c-.02.24-.04.48-.07.72,0-.07.01-.13.02-.19.02-.19.03-.37.05-.52M61.44,25.74c-.31,0-.62.07-.92.22-1.02.49-1.46,1.57-1.66,2.62-.54,2.89-.67,5.93-.93,8.86-.27,3.06-.49,6.12-.66,9.19-4.35.4-8.78.69-13.14.69h-.02c-3.69,0-7.4-.34-11.09-.34-.34,0-.67,0-1.01,0,.05-.04.1-.1.11-.18.4-2.48.06-4.94-1-7.21-.1-.22-.33-.35-.54-.35-.17,0-.34.09-.44.28-2.59,5.29-3.1,11-3.37,16.79-.23,4.85-.4,10.35,1.93,14.76.13.25.37.36.62.36.31,0,.63-.17.77-.44,1.11-2.05,1.8-4.24,2.03-6.55.02-.22-.04-.4-.13-.53,3.81.43,7.76.3,11.57.36,4.54.07,9.07.18,13.62.2.14,3.03.37,6.06.64,9.09.27,2.98.71,5.95,1.13,8.91.22,1.55.35,5.18,2.63,5.18.06,0,.12,0,.18,0,1.06-.08,1.58-1.03,1.87-1.94.46-1.42.45-3.02.64-4.49.4-3.06.67-6.11.88-9.18.43.08.87.11,1.31.11,1.57,0,3.17-.44,4.58-1.09.14-.06.24-.17.3-.29.15.11.33.16.52.16.5,0,1.04-.36.96-.95,0-.02,0-.04-.01-.07.07.02.15.04.23.04.01,0,.02,0,.03,0h0s.3,0,.71-.01c6.39-.09,52.62-.48,97.25-.85,22.31-.19,44.23-.36,60.57-.5,8.17-.07,14.94-.12,19.67-.16,2.37-.02,4.22-.03,5.48-.04,1.25-.01,1.92-.02,1.94-.02h0c.42,0,.75-.34.75-.76,0-.08-.02-.14-.04-.21.25-.32.44-.7.61-1.08.56.3,1.29.46,2.02.46.82,0,1.64-.2,2.21-.6.75-.54,1.03-1.47,1.11-2.35,0-.06,0-.12,0-.18.02,0,.03.01.05.02.17.02.34.03.51.03.53,0,1.06-.09,1.59-.15.73-.09,1.46-.19,2.19-.3,1.43-.22,2.87-.45,4.29-.76,1.77-.38,3.95-1.22,4.79-2.9.14,0,.28,0,.42,0,.84,0,1.69-.07,2.51-.1,1.4-.05,2.81-.06,4.21-.09,2.75-.06,5.51-.12,8.26-.28.36-.02.59-.28.69-.6.27-.86.44-1.75.54-2.65.69.07,1.4.09,2.11.09,1.01,0,2.02-.04,3.01-.05,2.06-.01,4.12-.02,6.18-.03,4.06-.02,8.11-.1,12.17-.15,8.05-.09,16.11-.17,24.16-.25,2.25-.02,4.5-.04,6.74-.05.16,0,.32,0,.48,0,1.11,0,2.23.02,3.34.02,1.04,0,2.08-.02,3.11-.1.17-.01.28-.1.34-.21.3-.02.6-.05.91-.11.4-.08.8-.15,1.19-.21.89-.14,1.77-.28,2.66-.4.86-.11,1.73-.24,2.59-.34.43-.05.87-.1,1.3-.13.48-.04.91-.04,1.25-.41.16-.17.19-.47.07-.68.03,0,.06-.01.1-.02.33-.1.26-.55-.04-.63-.95-.26-1.97-.33-3-.33-1.29,0-2.59.11-3.82.13-2.36.04-4.72.07-7.08.16-4.72.19-9.44.27-14.16.32-4.72.06-9.44.13-14.17.2-3.53.05-7.07.17-10.6.17-1.19,0-2.38-.01-3.57-.05-1.05-.03-2.09-.04-3.14-.04-1.57,0-3.13.02-4.7.02h-.02c-1.67,0-3.35-.06-5.02-.06-.78,0-1.57.01-2.35.05-.07-.83-.25-1.66-.69-2.2-.02-.35-.25-.68-.68-.82-.2-.07-.41-.09-.62-.09-.49,0-1,.13-1.47.18-.72.08-1.44.13-2.16.18-1.34.1-2.67.16-4.01.2-.55.02-1.1.02-1.65.02-1.91,0-3.81-.09-5.71-.11-.13-.37-.32-.73-.58-1.04-.86-1.04-2.21-1.23-3.46-1.47-1.46-.28-2.92-.55-4.38-.83-.73-.14-1.46-.27-2.19-.41-.42-.08-.85-.18-1.29-.23-.09-.1-.21-.18-.37-.21-.02,0-.04,0-.05,0-.03,0-.06,0-.1,0h0c.02-.72.06-1.45.08-2.17.01-.57-.43-.84-.88-.84-.15,0-.3.03-.43.08-.12-.06-.25-.1-.38-.1-.07,0-.14,0-.22.03-.3.09-.61.1-.92.1-.11,0-.21,0-.32,0-.05,0-.1,0-.15,0-.51,0-1.02.02-1.52.03-.49,0-.98.02-1.47.03-.05,0-.09,0-.14,0s-.1,0-.15,0c-.16,0-.33,0-.5.02-.47-.91-1.07-2.01-1.88-2.3-.13-.05-.27-.07-.41-.07-.25,0-.49.08-.67.22-6.77.05-48.95.4-91.31.75-23.11.19-46.27.39-63.75.54-8.74.08-16.06.14-21.24.19-2.59.02-4.65.05-6.08.06-.72,0-1.28.01-1.67.02-.2,0-.35,0-.47,0-.06,0-.1,0-.14,0-.02-.31-.1-.6-.28-.84-.45-.59-1.23-.73-2-.73-.52,0-1.04.06-1.47.08-.78.04-1.55.1-2.32.19-.16.02-.33.03-.49.05-.03-.46-.1-.92-.16-1.36-.11-.88-.12-1.78-.16-2.67-.09-1.69-.22-3.37-.41-5.05-.16-1.43-.17-4.33-1.4-5.65.05-.11.05-.24-.06-.33-.37-.33-.81-.49-1.27-.49h0ZM61.67,86.34c-1.42,0-1.88-5.09-1.99-5.88-.36-2.5-.6-5.01-.84-7.53-.79-8.25-.85-16.64-.52-24.96.23-.28.24-.74.04-1.05.07-1.56.15-3.11.24-4.66.17-2.9.41-5.79.68-8.68.13-1.39.25-2.79.43-4.18.12-.93.6-2.62,1.62-2.89,0,0,0,0,0,0,.98.65,1.35,1.65,1.52,2.78.21,1.37.32,2.76.43,4.14.11,1.44.2,2.89.26,4.34.03.72.05,1.44,0,2.16-.04.53-.15,1.11-.15,1.66-1.63.45-2.36,2.66-2.52,4.22-.31,3.07-.46,6.18-.52,9.26-.07,3.12-.11,6.24-.02,9.35.07,2.38.13,4.99,2.24,6.52.39.28.79.5,1.21.67,0,2.39-.14,4.79-.28,7.17-.08,1.35-.2,2.69-.38,4.03-.12.9-.11,2.72-.95,3.35-.18.13-.34.19-.49.19h0ZM29.44,68.89c-.78-1.74-1.29-3.55-1.46-5.48-.21-2.39-.13-4.79,0-7.19.28-5.05.36-10.54,2.59-15.2.68,1.83.99,3.77.93,5.74,0,.11.05.18.13.23-.34,0-.69.01-1.03.03-.22.01-.25.36-.03.39,4.38.74,8.99.55,13.42.61,4.41.07,8.8.17,13.21.19-.09,1.98-.15,3.97-.19,5.95-.09-.13-.22-.23-.39-.28-.29-.09-.59-.12-.9-.12-.46,0-.93.06-1.36.09-.69.04-1.38.09-2.07.14-1.55.11-3.1.21-4.65.22-3.05.03-6.1.05-9.14.28-.29.02-.24.42.03.43,2.03.12,4.06.15,6.09.15,1.02,0,2.05,0,3.08-.01.09,0,.18,0,.27,0,1.41,0,2.83.06,4.24.14.75.04,1.5.08,2.25.11.39.02.8.06,1.2.06.36,0,.71-.03,1.05-.14.13-.04.22-.11.29-.19,0,.12,0,.24,0,.36-.01,1.2,0,2.4.02,3.59-.4-.2-.84-.25-1.29-.25-.49,0-.98.06-1.45.07-1.05.03-2.11.06-3.16.1-2.11.07-4.22.09-6.32.14-4.22.1-8.44.03-12.65.21-.36.02-.31.54.03.55,4.23.18,8.45.11,12.68.2,2.05.05,4.1.07,6.16.13,1.06.03,2.11.07,3.17.1.48.01.97.07,1.45.07s.96-.05,1.4-.26c.02.92.06,1.84.1,2.76-4.44.41-8.96.71-13.42.71,0,0-.01,0-.02,0-3.69,0-7.41-.34-11.1-.34-.81,0-1.61.02-2.42.06-.22.01-.25.36-.03.39.27.04.53.08.8.11-.14.12-.25.31-.27.58-.11,1.6-.54,3.13-1.24,4.56h0ZM64.22,42.77c.1,0,.19-.02.28-.06.22-.01.43-.03.66-.05.67-.06,1.34-.1,2.01-.15.67-.05,1.34-.1,2.01-.14.13,0,.28-.02.43-.02.26,0,.53.02.75.11.22.09.28.17.27.41-.02.32-.16.68-.24.99-.17.66-.34,1.33-.48,2-.14.67-.24,1.35-.37,2.02-.12.6-.3,1.3-.27,1.91,0,.06.05.1.1.1.04,0,.08-.02.1-.05.19-.32.28-.72.4-1.08.12-.35.23-.7.33-1.06.22-.76.47-1.51.68-2.28.12-.46.23-.93.33-1.4.06.01.12.03.19.03,0,0,.01,0,.02,0h0s.3,0,.71-.01c6.39-.09,52.62-.48,97.25-.85,6.04-.05,12.06-.1,17.94-.15.02.06.05.12.09.18.64.85,1.6,1.11,2.4,1.76.76.61,1.26,1.35,1.72,2.19.78,1.43,1.96,2.98,3.72,2.98.1,0,.2,0,.31-.02,1.87-.19,3.41-1.95,4.98-2.84.99-.56,2.02-.97,3.14-1.14.81-.12,1.63-.07,2.44-.12-.09,2.41,0,4.84.06,7.26-.08,0-.16,0-.24,0-.08,0-.16,0-.24,0-.6.02-1.2.04-1.79.07-1.19.06-2.39.18-3.58.26-2.39.17-4.78.31-7.17.39-.42.01-.37.64.04.64h0c.09,0,.19,0,.28,0,2.31,0,4.61.05,6.92.13,1.2.04,2.41.11,3.61.13.33,0,.66,0,.99,0,.25,0,.5,0,.75,0,.02,0,.04,0,.06,0h0c.15,0,.29,0,.42-.02,0,.14,0,.28,0,.42.03,1.95.07,3.89.1,5.84-.04,0-.08,0-.12,0-.12,0-.24.02-.37.08-.84.38-1.7.51-2.57.51-2.05,0-4.14-.75-6.21-.75-.48,0-.95.04-1.42.14-1.68.34-2.86,1.32-3.7,2.8-.57,1.01-1.23,2.72-2.34,3.45-7.57.06-15.37.13-23.17.19-23.11.19-46.27.39-63.75.54-8.74.08-16.06.14-21.24.19-2.59.02-4.65.05-6.08.06-.72,0-1.28.01-1.67.02-.2,0-.35,0-.47,0-.12,0-.18,0-.24,0-.16,0-.29.08-.41.17-.29-1.34-.71-2.65-1.05-3.97-.45-1.76-.94-3.51-1.35-5.27-.01-.05-.05-.07-.1-.07-.06,0-.13.04-.12.12.2,1.81.33,3.63.5,5.44.15,1.69.21,3.4.53,5.07-.05,0-.09-.02-.15-.02-.01,0-.02,0-.03,0-1.38.1-2.94.42-4.42.42-.46,0-.92-.03-1.37-.11-.12-.1-.28-.14-.45-.14-.04,0-.09,0-.13,0-.66-.19-1.27-.51-1.82-1.03-1.11-1.03-1.18-2.52-1.22-3.95-.04-1.59-.04-3.18-.04-4.77,0-3.18.13-6.36.3-9.54.09-1.63.16-3.28.34-4.91.14-1.27.5-2.58,1.6-3.15.12,0,.23.01.35.01.08.03.17.04.25.04h0ZM256.37,56.74c.23,0,.46-.16.46-.45-.01-2.59,0-5.2-.5-7.75-.24-1.24-.52-2.46-.89-3.66-.19-.64-.4-1.27-.63-1.9-.06-.17-.12-.33-.19-.49.16,0,.34,0,.48,0,.32,0,.6,0,.84,0,.35.82,1.11,1.61,1.52,2.33.54.95,1,1.95,1.38,2.97.81,2.14,1.32,4.39,1.5,6.68.18,2.29.05,4.6-.47,6.85-.25,1.09-.57,2.15-.98,3.19-.28.73-.83,1.55-1.04,2.36-.59,0-1.5.01-2.69.02,0,0,.01-.02.02-.02.21-.32.38-.66.53-1.01.15-.36.26-.74.34-1.13.08-.39.15-.79.08-1.19-.02-.13-.1-.25-.24-.28-.02,0-.04,0-.05,0-.11,0-.24.06-.28.17-.13.35-.19.71-.29,1.07-.09.34-.22.67-.36,1-.14.34-.33.65-.5.98-.07.13-.12.28-.18.42-.78,0-1.66.01-2.63.02.54-1.58.95-3.2,1.06-4.87.12-1.92.1-3.89-.08-5.8-.02-.26-.23-.38-.43-.38-.22,0-.45.15-.43.44.12,1.85.02,3.63-.38,5.44-.39,1.74-.79,3.49-1.41,5.17-7.04.06-17.87.15-30.78.25.31-.26.57-.56.74-.85.67-1.17.77-2.59.75-3.9-.03-1.69-.22-3.37-.25-5.06-.05-3.29.01-6.58-.07-9.87-.03-1.35-.17-2.76-.89-3.93-.16-.25-.36-.52-.59-.76,3.91-.03,7.62-.06,11.08-.09,7.71-.06,14.15-.12,18.83-.15.08.14.16.28.24.42.24.38.5.74.72,1.13.48.83.86,1.7,1.14,2.61.28.88.46,1.79.54,2.71.08.94.01,1.89.13,2.82.03.23.28.41.5.41.14,0,.27-.07.33-.24.67-1.86.16-4.17-.46-5.98-.32-.93-.74-1.84-1.25-2.68-.25-.42-.53-.83-.84-1.21,1.06,0,2.01-.02,2.85-.02.02.41.19.81.34,1.21.22.59.43,1.18.62,1.78.37,1.16.71,2.33.99,3.51.59,2.43,1.18,4.85,1.32,7.35.01.26.21.39.41.39h0ZM214.87,58.93c.11,0,.22-.08.22-.22-.05-1.35-.11-2.69-.21-4.04-.11-1.43.15-2.8.2-4.22.05-1.35,0-2.7-.07-4.05-.03-.67-.06-1.35-.09-2.02-.02-.51.02-1.06-.06-1.57.75,0,1.51-.01,2.25-.02.68.52,1.28.96,1.64,1.87.44,1.12.43,2.35.44,3.54.01,2.52.02,5.04.05,7.56.03,2.47-.03,4.95-.2,7.41-.12,1.78-.98,3.8-2.77,3.8-.31,0-.66-.06-1.03-.2-.04-.01-.08-.02-.12-.02-.2,0-.33.2-.23.4,0,.02.02.03.03.04-.18,0-.37,0-.55,0,.46-.29.92-.69.94-1.27,0-.12-.11-.18-.21-.18-.02,0-.04,0-.05,0-.49.12-.84.52-1.26.77-.42.25-.9.43-1.38.54-.29.06-.59.1-.89.1-.68,0-1.37-.16-1.96-.49-.06-.03-.11-.04-.16-.04-.03,0-.06,0-.08.01-.11-.06-.25-.1-.38-.1-.12,0-.25.03-.37.1-.07.04-.13.06-.19.06-.58,0-.48-2.02-.48-2.33-.03-1.12-.06-2.24-.08-3.36-.06-2.24-.11-4.48-.17-6.71-.06-2.18-.13-4.35-.19-6.53-.03-1.07-.17-2.23.16-3.27.3-.95.93-1.19,1.61-1.65,1.36-.01,2.7-.02,4.02-.03-.05.55.06,1.13.09,1.67.04.62.08,1.24.11,1.86.09,1.4.17,2.8.37,4.18.2,1.35.6,2.64.64,4.01.04,1.4.13,2.8.22,4.19,0,.13.11.19.21.19h0ZM195.35,48.4c-1.42,0-1.89-2.41-2.58-3.49-.4-.61-1.01-1.34-1.72-1.91,5.53-.05,10.92-.09,16.09-.13-.5.58-.77,1.29-.89,2.04-.36-.07-.73-.1-1.11-.1-1.3,0-2.67.34-3.82.6-.93.21-1.87.6-2.69,1.09-.85.5-1.59,1.21-2.47,1.67-.3.16-.57.23-.81.23h0ZM260.41,65.34s.02-.05.03-.08c.46-1.08.83-2.21,1.11-3.35.62-2.43.88-4.97.78-7.47-.1-2.47-.55-4.93-1.39-7.24-.36-1.01-.81-1.99-1.3-2.94.07,0,.14,0,.2,0,0,0,.01,0,.02,0,.49,0,.98,0,1.47,0,.49,0,.98,0,1.47,0,.01,0,.02,0,.04,0,.16,0,.32,0,.47,0,.33,0,.65.01.97.1.24,4.34.43,8.65.33,13-.03,1.11-.06,2.22-.1,3.33-.04,1.09,0,2.29-.28,3.35-.32,1.16-1.07,1.4-1.93,1.4-.58,0-1.22-.11-1.81-.11-.03,0-.06,0-.08,0h0ZM266.08,47.41c.08,0,.16-.01.23-.04.34.1.69.16,1.04.23.6.13,1.2.25,1.79.38,1.28.27,2.56.54,3.85.8.6.12,1.2.25,1.8.37.59.12,1.25.24,1.72.65.32.29.52.71.67,1.11.18.48.36.88.65,1.3.08.12.2.17.32.17.18,0,.35-.12.4-.31.09-.35.12-.71.1-1.06,2.36.28,4.76.34,7.12.45,1.39.07,2.79.1,4.19.12.72.01,1.45.01,2.17.02.34,0,.69.04,1.04.04.15,0,.3,0,.44-.02.06.3.16.6.22.91.12.62.18,1.25.19,1.87.03,1.1-.14,2.16-.45,3.2-2.58.1-5.16.27-7.73.44-1.35.09-2.69.21-4.04.28-.89.05-1.8.06-2.69.15.02-.14.03-.28.03-.42,0-.32-.28-.51-.56-.51-.2,0-.4.09-.49.29-.45.95-1.03,1.66-1.92,2.24-.96.63-2.11.91-3.22,1.15-1.26.27-2.52.5-3.79.71-.61.1-1.23.2-1.84.3-.64.1-1.31.15-1.92.37.03-.85.04-1.7.08-2.54.2-4.22.39-8.45.53-12.67.02,0,.04,0,.06,0h0ZM322.89,53.38c7.43,0,14.87-.16,22.3-.16,2.07,0,4.14.01,6.21.04,1.46.02,2.91.04,4.37.04,1.16,0,2.31,0,3.47-.03.71-.01,1.41-.02,2.12-.04-.74.17-1.49.34-2.22.56-.45.13-.89.26-1.34.39-.31.09-.6.22-.88.36-.07-.05-.15-.09-.26-.1-.6-.03-1.2-.05-1.8-.05-1.4,0-2.81.07-4.2.08-2,.02-4,.05-5.99.06-4.06.03-8.12.07-12.17.1-7.99.07-15.98.11-23.98.15-2.25.01-4.49.05-6.74.07-.16,0-.33,0-.5,0-.93,0-1.89-.03-2.84-.03-1,0-1.99.03-2.96.15.01-.23.03-.46.03-.69,0-.25,0-.53,0-.83.63.03,1.27.04,1.9.04,1.34,0,2.67-.04,4-.05,2.42-.02,4.85-.02,7.27-.03,4.71-.02,9.42-.07,14.13-.07h.07ZM191.32,67.39c.17-.19.34-.38.48-.59,1.16-1.68,1.45-4.2,3.82-4.6.29-.05.58-.07.86-.07,1.58,0,3.11.68,4.58,1.17.9.3,1.87.51,2.82.51.86,0,1.71-.17,2.49-.57,0,.54.02,1.08.03,1.62.01.79-.02,1.7.32,2.41-4.97.04-10.13.08-15.41.13h0Z"/>
        </g>
      </g>
    </g>
  </g>
  <g>
    <path class="st1" d="M376.69,56.97c.05-1.24-.78-2.38-1.64-3.18-.55-.51-1.15-.92-1.84-1.23-.66-.3-1.35-.4-2.07-.51-.22-.03-.39.05-.5.17-.14-.02-.29-.04-.43-.06-.45-.05-.61.64-.19.77.2.06.42.13.61.23.05.06.12.1.2.14.02,0,.04.02.06.02.2.15.37.35.54.52.36.39.74.84,1.01,1.29.63,1.06.52,2.63,1.73,3.26,1.1.57,2.46-.15,2.52-1.43Z"/>
    <path class="st1" d="M374.6,49.38c1.05-1.08,1.61-2.42,1.49-3.88-.03-.37-.37-.66-.72-.73-.39-.07-.74.1-.99.41-1.21,1.48-2.6,2.85-4.21,4.15-.4.32-.48.98-.15,1.34.37.39.9.39,1.34.07.02-.01.03-.03.05-.04.49,0,1-.05,1.45-.21.64-.23,1.26-.61,1.74-1.11Z"/>
    <path class="st1" d="M379.96,50.08c-.12-.43-.52-.61-.95-.56-.15.02-.29.03-.44.07-.19.06-.39.11-.58.18-.07.02-.14.05-.2.07,0,0,0,0,0,0-.02,0-.03,0-.05.01-.17.05-.34.11-.51.17,0,0,0,0-.01,0-.03,0-.07.01-.1.02-.07.01-.15.02-.22.03-.14.02-.28.04-.41.04-.06,0-.12,0-.18.01-.08,0-.17.02-.25.03-.15.02-.3.04-.45.06-.23.02-.44.28-.46.5-.02.23.11.47.34.54.32.09.64.17.97.18.15,0,.29.01.44.01.15,0,.31-.02.46,0,.28.03.57.02.86,0,.22-.01.42-.04.64-.09.22-.05.41-.13.61-.24.39-.21.6-.63.48-1.04Z"/>
  </g>
</svg>